<?xml version="1.0" encoding="utf-8"?>
<!-- Generator: Adobe Illustrator 16.0.0, SVG Export Plug-In . SVG Version: 6.00 Build 0)  -->
<!DOCTYPE svg PUBLIC "-//W3C//DTD SVG 1.1//EN" "http://www.w3.org/Graphics/SVG/1.1/DTD/svg11.dtd">
<svg version="1.1" id="Layer_1" xmlns="http://www.w3.org/2000/svg" xmlns:xlink="http://www.w3.org/1999/xlink" x="0px" y="0px"
	 width="792px" height="612px" viewBox="0 0 792 612" enable-background="new 0 0 792 612" xml:space="preserve">
<g>
	<g>
		<path d="M126.39,357.714c0,2.087-0.371,5.474,1.949,6.354v0.14h-8.767v-0.14c2.365-0.835,2.087-4.268,2.087-6.354v-17.487
			c0-2.134,0.278-5.52-2.087-6.4v-0.141h14.842c0.789,0,1.578,0.094,2.181-0.23h0.139v5.381h-0.139
			c-1.438-1.624-3.34-1.811-5.473-1.811c-1.624,0-3.247,0.047-4.732,0.326v8.627h5.566c0.696,0,1.438,0,1.995-0.278h0.139v4.917
			h-0.139c-0.742-1.392-2.69-1.299-4.128-1.299h-3.433V357.714z"/>
		<path d="M142.101,343.227c0-1.867,0.284-4.83-1.786-5.602v-0.121h7.711v0.121c-2.029,0.771-1.786,3.775-1.786,5.602v15.299
			c0,1.826-0.243,4.789,1.786,5.561v0.122h-7.711v-0.122c2.029-0.73,1.786-3.734,1.786-5.561V343.227z"/>
		<path d="M156.984,358.932c0,2.273-0.041,3.896,2.11,5.154v0.122h-7.183v-0.122c2.151-1.258,2.151-2.881,2.151-5.154v-16.193
			c0-2.271,0-3.895-2.111-5.113v-0.121h5.926v0.041c0.162,0.486,0.324,0.689,0.608,1.014l0.568,0.812l14.854,18.75v-15.382
			c0-2.271,0.041-3.895-2.11-5.113v-0.121h7.143v0.121c-2.11,1.219-2.11,2.842-2.11,5.113v22.768
			c-2.881-0.974-4.139-2.312-5.925-4.626l-13.92-17.653V358.932z"/>
		<path d="M188.675,360.799l5.154,0.486c2.678,0.244,5.479-0.607,7.508-2.395h0.122l-1.826,5.317h-16.923v-0.122
			c2.07-0.73,1.826-3.734,1.826-5.561v-15.299c0-1.867,0.244-4.83-1.826-5.602v-0.121h12.986c0.69,0,1.38,0.082,1.907-0.203h0.122
			v4.748h-0.122c-1.257-1.461-2.921-1.623-4.788-1.623c-1.421,0-2.841,0.041-4.14,0.284v7.548h4.83c0.649,0,1.298,0,1.786-0.243
			h0.122v4.302h-0.122c-0.649-1.177-2.354-1.136-3.612-1.136h-3.003V360.799z"/>
		<path d="M224.289,340.227c0-2.134,0.278-5.52-2.087-6.4v-0.141h8.859v0.141c-2.319,0.881-2.041,4.267-2.041,6.4v26.301
			c0,4.916-3.571,7.606-10.39,8.35v-0.141c5.148-3.293,5.659-6.076,5.659-11.086V340.227z"/>
		<path d="M242.289,360.799l5.154,0.486c2.679,0.244,5.479-0.607,7.508-2.395h0.122l-1.826,5.317h-16.923v-0.122
			c2.07-0.73,1.827-3.734,1.827-5.561v-15.299c0-1.867,0.243-4.83-1.827-5.602v-0.121h12.987c0.689,0,1.379,0.082,1.907-0.203h0.122
			v4.748h-0.122c-1.258-1.461-2.922-1.623-4.789-1.623c-1.42,0-2.841,0.041-4.14,0.284v7.548h4.83c0.649,0,1.298,0,1.785-0.243
			h0.122v4.302h-0.122c-0.649-1.177-2.354-1.136-3.612-1.136h-3.003V360.799z"/>
		<path d="M268.86,365.425c-3.693-2.679-4.059-2.394-5.397-6.574l-4.789-14.976c-0.73-2.232-1.339-4.869-3.369-6.25v-0.121h5.925
			c-0.162,0.893,0.244,2.15,0.487,2.922l6.047,18.871l4.748-15.422c0.771-2.475,1.583-5.113-0.649-6.25v-0.121h5.723
			c-0.244,1.015,0.04,2.312,0.608,4.1l5.642,17.572l4.585-14.854c0.73-2.313,2.07-5.602-1.095-6.697v-0.121h6.25l-8.563,27.921
			c-3.734-2.556-4.018-2.354-5.357-6.534l-4.464-13.961L268.86,365.425z"/>
		<path d="M302.334,360.799l5.154,0.486c2.679,0.244,5.479-0.607,7.509-2.395h0.121l-1.826,5.317h-16.923v-0.122
			c2.069-0.73,1.826-3.734,1.826-5.561v-15.299c0-1.867,0.244-4.83-1.826-5.602v-0.121h12.986c0.69,0,1.38,0.082,1.907-0.203h0.122
			v4.748h-0.122c-1.258-1.461-2.922-1.623-4.789-1.623c-1.42,0-2.841,0.041-4.14,0.284v7.548h4.83c0.649,0,1.299,0,1.786-0.243
			h0.121v4.302h-0.121c-0.65-1.177-2.354-1.136-3.612-1.136h-3.003V360.799z"/>
		<path d="M331.014,361.285c2.76,0.164,5.154-0.771,7.184-2.475h0.122l-2.111,5.397h-16.68v-0.122
			c2.07-0.73,1.826-3.734,1.826-5.561v-15.299c0-1.867,0.244-4.83-1.826-5.602v-0.121h7.751v0.121
			c-2.069,0.771-1.786,3.775-1.786,5.602v17.693L331.014,361.285z"/>
		<path d="M353.323,361.285c2.761,0.164,5.155-0.771,7.184-2.475h0.122l-2.11,5.397h-16.68v-0.122
			c2.069-0.73,1.826-3.734,1.826-5.561v-15.299c0-1.867,0.243-4.83-1.826-5.602v-0.121h7.751v0.121
			c-2.069,0.771-1.785,3.775-1.785,5.602v17.693L353.323,361.285z"/>
		<path d="M369.261,360.799l5.154,0.486c2.679,0.244,5.479-0.607,7.508-2.395h0.122l-1.826,5.317h-16.924v-0.122
			c2.069-0.73,1.826-3.734,1.826-5.561v-15.299c0-1.867,0.243-4.83-1.826-5.602v-0.121h12.987c0.689,0,1.379,0.082,1.907-0.203
			h0.122v4.748h-0.122c-1.258-1.461-2.922-1.623-4.789-1.623c-1.42,0-2.841,0.041-4.14,0.284v7.548h4.829
			c0.649,0,1.299,0,1.786-0.243h0.122v4.302h-0.122c-0.649-1.177-2.354-1.136-3.612-1.136h-3.003V360.799z"/>
		<path d="M395.142,337.504c5.438,0,8.401,2.84,8.401,6.533c0,3.572-3.125,6.372-6.453,7.144l5.844,7.345
			c1.705,2.111,4.262,4.221,6.574,5.683h-3.732c-2.152,0-3.49-0.528-4.709-2.029l-4.951-6.128l-3.733-5.723
			c3.246-0.487,7.02-1.988,7.02-5.804c0-2.921-2.515-4.626-5.235-4.505c-0.933,0.041-1.826,0.162-2.76,0.324v18.182
			c0,1.867-0.243,4.83,1.827,5.561v0.122h-7.752v-0.122c2.07-0.73,1.785-3.734,1.785-5.561v-15.299c0-1.867,0.285-4.83-1.785-5.602
			v-0.121H395.142z"/>
		<path d="M426.826,342.333c-1.584-1.623-4.1-2.558-6.371-2.558c-2.314,0-5.236,0.894-5.236,3.693
			c0,5.561,13.961,5.479,13.961,12.987c0,4.343-4.545,8.401-10.877,8.401c-2.475,0-4.951-0.365-7.264-1.219l-1.178-5.072
			c2.395,2.07,5.723,3.368,8.889,3.368c2.312,0,5.803-1.38,5.803-4.22c0-6.331-13.961-5.195-13.961-13.799
			c0-5.113,5.236-7.062,10.188-7.062c2.029,0,4.1,0.285,6.047,0.894V342.333z"/>
		<path d="M468.557,339.205c-1.809-1.854-4.684-2.921-7.281-2.921c-2.645,0-5.984,1.021-5.984,4.222
			c0,6.354,15.957,6.262,15.957,14.842c0,4.965-5.195,9.603-12.432,9.603c-2.828,0-5.658-0.418-8.303-1.393l-1.344-5.798
			c2.736,2.366,6.539,3.851,10.156,3.851c2.645,0,6.633-1.577,6.633-4.824c0-7.235-15.955-5.938-15.955-15.771
			c0-5.844,5.984-8.071,11.643-8.071c2.318,0,4.686,0.325,6.91,1.021V339.205z"/>
		<path d="M477.488,343.227c0-1.867,0.285-4.83-1.785-5.602v-0.121h7.711v0.121c-2.029,0.771-1.785,3.775-1.785,5.602v15.299
			c0,1.826-0.244,4.789,1.785,5.561v0.122h-7.711v-0.122c2.029-0.73,1.785-3.734,1.785-5.561V343.227z"/>
		<path d="M492.371,358.932c0,2.273-0.041,3.896,2.111,5.154v0.122h-7.184v-0.122c2.15-1.258,2.15-2.881,2.15-5.154v-16.193
			c0-2.271,0-3.895-2.109-5.113v-0.121h5.924v0.041c0.162,0.486,0.324,0.689,0.609,1.014l0.568,0.812l14.854,18.75v-15.382
			c0-2.271,0.041-3.895-2.111-5.113v-0.121h7.143v0.121c-2.109,1.219-2.109,2.842-2.109,5.113v22.768
			c-2.881-0.974-4.141-2.312-5.926-4.626l-13.92-17.653V358.932z"/>
		<path d="M538.834,342.535c-2.23-1.42-4.83-2.312-7.508-2.312c-5.6,0-9.496,4.1-9.496,9.983c0,5.966,4.059,11.282,10.309,11.282
			c3.043,0,6.088-1.096,8.645-2.557h0.121l-2.07,4.707c-1.906,0.894-4.018,1.219-6.127,1.219c-9.578,0-15.504-5.357-15.504-14.043
			c0-8.4,5.926-13.961,14.246-13.961c2.475,0,4.99,0.447,7.385,1.016V342.535z"/>
		<path d="M549.621,360.799l5.154,0.486c2.678,0.244,5.479-0.607,7.508-2.395h0.121l-1.826,5.317h-16.924v-0.122
			c2.07-0.73,1.828-3.734,1.828-5.561v-15.299c0-1.867,0.242-4.83-1.828-5.602v-0.121h12.988c0.689,0,1.379,0.082,1.906-0.203h0.123
			v4.748h-0.123c-1.258-1.461-2.922-1.623-4.789-1.623c-1.42,0-2.84,0.041-4.139,0.284v7.548h4.83c0.648,0,1.299,0,1.785-0.243
			h0.121v4.302h-0.121c-0.648-1.177-2.354-1.136-3.611-1.136h-3.004V360.799z"/>
		<path d="M581.006,339.623c4.127-1.438,7.793-4.406,9.926-8.117h0.139v26.162c0,2.645-0.186,4.777,2.32,6.4v0.14h-9.74v-0.14
			c2.875-1.391,2.734-3.571,2.734-6.4v-17.904h-5.379V339.623z"/>
		<path d="M603.211,362.26c7.422-1.531,14.193-8.303,14.193-16.096c0-4.731-2.645-9.927-7.979-9.927
			c-3.988,0-6.771,3.108-6.771,7.005c0,4.221,2.783,7.561,7.051,7.561c1.715,0,3.432-0.604,4.916-1.484l-3.154,3.85
			c-1.205,0.464-2.457,0.695-3.756,0.695c-5.428,0-9.74-4.035-9.74-9.647c0-6.772,5.518-11.271,12.059-11.271
			c7.283,0,12.061,5.706,12.061,12.71c0,5.333-2.83,10.482-6.957,13.775c-4.223,3.34-8.953,5.01-14.24,5.705L603.211,362.26z"/>
		<path d="M629.777,345.746l2.133,0.14c4.221,0.278,6.957-1.994,6.957-4.686c0-3.061-3.201-4.638-5.844-4.638
			c-2.645,0-4.963,1.02-7.051,2.365h-0.139l1.9-4.963c1.949-0.742,4.082-1.021,6.17-1.021c4.314,0,9.879,2.087,9.879,7.235
			c0,3.525-2.504,5.66-5.658,6.541c4.268,0.788,7.979,3.34,7.979,8.117c0,7.84-8.535,10.112-14.889,10.112l-4.824-0.371
			l-2.273-5.567h0.139c2.506,1.346,5.473,2.32,8.441,2.32c3.943,0,8.119-2.18,8.119-6.68c0-3.432-2.367-5.52-7.375-5.52
			c-1.207,0-2.459,0.093-3.664,0.463V345.746z"/>
		<path d="M669.236,339.299h-0.139c-1.717-1.855-4.918-1.994-7.377-1.994l-5.055,0.277l-0.418,7.654
			c1.484-0.418,2.969-0.604,4.5-0.604c6.076,0,11.225,3.434,11.225,9.928c0,6.215-5.938,10.39-13.775,10.39
			c-1.994,0-3.99-0.278-5.984-0.742l-2.18-4.731c2.506,1.299,5.287,1.855,8.117,1.855c4.268,0,8.535-1.949,8.535-6.818
			c0-4.453-4.268-6.262-8.072-6.262c-2.271,0-5.01,0.603-7.096,1.529l1.021-16.096h16.697V339.299z"/>
	</g>
	<path d="M197.837,205.96c7.695,11.458,14.92,10.112,16.415,10.112c17.145,0,32.662-18.665,56.851-45.202
		c2.119-2.324,9.729-8.605,17.532-8.605c5.382,0,10.54,3.628,11.421,6.144c2.868,8.388-4.931,14.225-21.893,42.835
		c-6.376,10.753-21.134,43.298-29.729,64.635c-1.629,4.044-2.382,7.366-3.891,10.03c-1.057,1.867-4.261,6.989-10.261,6.989
		c-6.729,0-7.26-4.503-6.446-11.719c2.211-19.602,17.813-57.679,22.538-69.471c0,0,0.675-0.55,0.653-1.432s-2.461-0.412-3.769,0.619
		c0,0-33.385,26.312-52.154,26.312c-16.11,0-23.377-7.559-27.162-16.772c0,0-0.315-1.367-0.826-1.633
		c-1.295-0.672-3,1.248-3.787,2.715c0,0-16.362,30.517-19.021,37.079c-5.931,14.645-10.408,20.05-15.939,20.08
		c-2.598,0.014-6.184,0.356-5.403-7.865c0.884-9.318,5.074-21.899,15.315-49.064c6.518-17.289,19.924-43.146,24.392-51.472
		c5.512-10.275,26.961-16.269,29.392-5.586C194.943,177.333,190.97,195.734,197.837,205.96z"/>
	<path d="M539.893,197.248c-6.525,0.089-13.594,6.616-13.459,12.357c0.092,3.869,3.266,5.891,6.213,5.85
		c8.875-0.122,14.92-6.051,14.865-12.177C547.479,199.54,544.105,197.19,539.893,197.248z"/>
	<path d="M629.014,247.341c0.041-9.72,5.422-14.442,10.084-18.173c4.66-3.73,17.211-8.85,30.9-9.907
		c1.342-0.104,2.709-0.209,4.348,0.961c0.797,0.569,1.139,3.021-0.482,4.508c-4.184,3.844-15.463,6.244-19.922,9.781
		c-3.84,3.046-3.689,5.791-1.674,7.128c2.564,1.701,14.236,8.43,13.66,17.065c-0.635,9.52-7.205,15.548-18.033,19.964
		c-8.686,3.542-19.727,7.27-28.262,7.958c-5.826,0.47-5.537-4.836-3.707-5.688c2.883-1.339,10.617-3.45,14.875-4.981
		c4.256-1.531,12.129-5.168,12.453-9.706C643.582,261.635,628.982,254.385,629.014,247.341z"/>
	<path d="M634.135,253.205c0,0-8.908,9.934-19.959,17.088c-3.896,2.523-13.719,6.065-17.689,6.119
		c-5.424,0.075-9.381-1.855-11.268-6.717c-3.203-8.255,9.541-24.418,10.109-27.479s-4.369-1.626-5.773-0.729
		c-2.543,1.623-7.709,6.957-15.168,14.408c-6.137,6.131-17.08,21.02-23.783,21.111c-4.787,0.066-7.898-1.892-8.162-4.855
		c-0.24-2.714,1.074-5.582,2.385-7.994c1.557-2.559,7.445-12.208,12.078-19.113c1.648-2.454,3.105-5.972,2.727-7.396
		s-2.529-0.663-4.932,0.968c-6.1,4.14-16.361,19.954-22.809,24.796c-6.178,4.641-9.205-5.399-6.711-6.916
		c3.391-2.061,21.809-23.845,23.359-25.159c7.354-6.229,9.74-7.819,18.201-7.934c4.801-0.066,9.703,2.075,11.207,4.946
		c1.74,3.318,1.172,8.243,1.182,8.976c0.01,0.732,1.986,0.536,1.986,0.536c6.191-4.714,14.607-14.854,26.416-15.016
		c8.057-0.11,11.961,3.26,12.049,9.651c0.123,8.996-5.918,15.403-10.119,23.38c-1.061,2.015,0.443,2.283,1.848,2.264
		c1.404-0.02,4.498-1.114,8.729-4.286c4.232-3.173,11.85-10.954,12.271-11.509L634.135,253.205z"/>
	<path d="M488.273,265.42c-1.805,1.234-2.568-9.289,0.797-10.721c6.715-2.858,14.668-12.804,14.668-12.804
		s9.686-12.287,13.523-14.93c2.439-1.68,3.457-2.293,7.812-2.434c4.633-0.148,9.363,1.355,9.166,3.606
		c-0.295,3.413-2.912,5.296-5.5,8.674c-4.305,5.625-13.326,18.398-13.199,21.566c0.08,2.001,1.717,2.004,2.797,2.05
		c1.709,0.072,4.6-2.052,6.705-3.835c2.225-1.884,12.475,0.836,8.863,5.053c-3.133,3.66-14.957,15.093-25.023,15.229
		c-7.965,0.108-11.123-3.237-14.193-10.513C493.383,263.264,492.008,262.868,488.273,265.42z"/>
	
		<line fill="none" stroke="#000000" stroke-width="4.2057" stroke-linecap="round" x1="96.104" y1="302.151" x2="316.801" y2="302.151"/>
	
		<line fill="none" stroke="#000000" stroke-width="4.2057" stroke-linecap="round" x1="354.819" y1="302.151" x2="393.679" y2="302.151"/>
	
		<line fill="none" stroke="#000000" stroke-width="4.2057" stroke-linecap="round" x1="429.342" y1="302.151" x2="696.074" y2="302.151"/>
	<path d="M342.323,263.238c-5.304,12.123-14.127,31.325-14.674,40.062c-0.539,8.623,7.355,16.246,12.316,10.552
		c0.049-0.057,6.437-20.315,13.665-35.088c6.331-12.939,13.252-21.941,14.898-24.088c13.271-17.311,23.783-16.918,24.158-9.662
		c0.551,10.667-8.913,22.653-28.562,22.19c-2.225-0.052-2.483,3.175-2.561,4.761c-0.14,2.887,12.709,4.326,17.665,3.996
		c9.463-0.631,17.032-2.944,30.831-9.346c5.676-2.633,10.158-7.305,10.549-7.775c0.389-0.47,0.367-9.322-1.652-7.563
		c-3.641,3.172-9.76,5.097-12.723,6.519c-2.807,1.347-5.045,0.631-3.531-0.568c6.236-4.931,9.881-12.397,10.086-16.662
		c0.484-9.941-6.076-15.646-15.062-16.083c-8.769-0.426-17.175,5.208-20.394,8.394c-0.706,0.7-3.54,1.442-2.832-0.542
		c0.707-1.983,4.121-4.418,5.152-8.036c0.576-2.019-1.931-3.183-4.629-3.351c-2.138-0.133-4.45,0.54-5.062,0.644
		c-6.952,1.186-6.525,6.227-17.543,18.199c-6.711,7.293-18.616,21.921-25.76,22.816c-5.622,0.705,1.942-11.236,5.308-16.461
		c1.316-2.044,5.138-8.381,4.366-10.456c-0.476-1.276-1.887-2.835-4.33-3.69c-2.442-0.855-6.164-2.141-7.494-0.057
		c-7.663,12.019-17.056,23.375-35.719,29.408c-3.768,0.835-3.283-1.992-3.261-2.434c0.388-7.607,17.93-22.248,32.167-27.827
		c8.437-3.306,21.094-4,22.047-4.424s0.521-1.799,0.479-2.562c-0.103-1.888-0.936-3.157-7.576-3.208
		c-44.26-0.346-69.159,26.949-67.348,42.117c0.646,5.411,4.193,12.668,14.782,12.632c11.112-0.038,20.134-8.178,25.353-10.973
		l0.757,0.319c0,0-0.467,3.187,0.704,5.534c1.925,3.859,3.497,5.041,10.897,5.121C326.977,275.744,336.209,268.272,342.323,263.238z
		"/>
	<path d="M418.551,263.238c-5.303,12.123-14.127,31.325-14.674,40.062c-0.539,8.623,7.355,16.246,12.316,10.552
		c0.049-0.057,6.438-20.315,13.664-35.088c6.33-12.939,13.252-21.941,14.898-24.088c13.271-17.311,23.783-16.918,24.158-9.662
		c0.551,10.667-8.912,22.653-28.562,22.19c-2.225-0.052-2.482,3.175-2.561,4.761c-0.139,2.887,12.709,4.326,17.664,3.996
		c9.463-0.631,17.033-2.944,30.832-9.346c5.676-2.633,10.158-7.305,10.547-7.775c0.391-0.47,0.369-9.322-1.65-7.563
		c-3.641,3.172-9.76,5.097-12.723,6.519c-2.807,1.347-5.047,0.631-3.531-0.568c6.236-4.931,9.879-12.397,10.086-16.662
		c0.482-9.941-6.076-15.646-15.062-16.083c-8.77-0.426-17.176,5.208-20.395,8.394c-0.705,0.7-3.539,1.442-2.832-0.542
		c0.707-1.983,4.121-4.418,5.152-8.036c0.576-2.019-1.932-3.183-4.629-3.351c-2.139-0.133-4.451,0.54-5.062,0.644
		c-6.953,1.186-10.604,10.418-15.311,16.424c-4.707,6.005-9.674,11.776-12.828,13.878c-3.096,2.063,0.211,7.36,0.211,7.36
		s-0.211,1.893,1.473,0.421C421.414,258.204,418.551,263.238,418.551,263.238z"/>
</g>
<path d="M687.048,215.417c3.937,0,7.072,3.2,7.072,7.2c0,4.064-3.136,7.232-7.104,7.232c-3.936,0-7.136-3.168-7.136-7.232
	c0-4,3.2-7.2,7.136-7.2H687.048z M687.016,216.537c-3.168,0-5.76,2.72-5.76,6.08c0,3.424,2.592,6.112,5.792,6.112
	c3.2,0.032,5.76-2.688,5.76-6.08c0-3.392-2.56-6.112-5.76-6.112H687.016z M685.672,226.809h-1.279v-8.032
	c0.672-0.096,1.312-0.192,2.271-0.192c1.216,0,2.016,0.256,2.496,0.608c0.479,0.352,0.736,0.896,0.736,1.664
	c0,1.056-0.704,1.696-1.568,1.952v0.064c0.704,0.128,1.184,0.768,1.344,1.952c0.192,1.248,0.384,1.728,0.512,1.984h-1.344
	c-0.191-0.256-0.384-0.992-0.544-2.048c-0.191-1.024-0.704-1.408-1.728-1.408h-0.896V226.809z M685.672,222.361h0.929
	c1.056,0,1.951-0.384,1.951-1.376c0-0.704-0.512-1.408-1.951-1.408c-0.416,0-0.704,0.032-0.929,0.064V222.361z"/>
</svg>
