<?xml version="1.0" encoding="utf-8"?>
<!-- Generator: Adobe Illustrator 16.0.4, SVG Export Plug-In . SVG Version: 6.00 Build 0)  -->
<!DOCTYPE svg PUBLIC "-//W3C//DTD SVG 1.1//EN" "http://www.w3.org/Graphics/SVG/1.1/DTD/svg11.dtd">
<svg version="1.1" id="Layer_1" xmlns="http://www.w3.org/2000/svg" xmlns:xlink="http://www.w3.org/1999/xlink" x="0px" y="0px"
	 width="363px" height="38px" viewBox="0 0 363 38" enable-background="new 0 0 363 38" xml:space="preserve">
<path fill="#685040" d="M353.227,4.58h-1.213v4.031h-0.955V4.58h-1.213V3.759h3.381V4.58 M358.295,8.611h-0.867V4.697l-1.178,3.914
	h-0.516l-1.16-3.914v3.914h-0.867V3.759h1.395l0.896,2.872l0.891-2.872h1.406V8.611L358.295,8.611z"/>
<polyline fill="#685040" points="3.219,2.826 10.873,2.826 16.291,25.573 16.377,25.573 21.709,2.826 29.192,2.826 29.192,33.527 
	24.547,33.527 24.547,7.986 24.461,7.986 18.27,33.527 14.141,33.527 7.949,7.986 7.863,7.986 7.863,33.527 3.219,33.527 
	3.219,2.826 "/>
<path fill="#685040" d="M40.069,2.826h6.279l8.084,30.701h-5.117l-1.893-7.524h-8.986l-1.979,7.524H31.34L40.069,2.826
	 M46.606,22.09L43.078,6.953h-0.086L39.338,22.09H46.606z"/>
<polyline fill="#685040" points="59.42,21.532 51.508,2.826 56.969,2.826 62.129,16.07 67.416,2.826 72.533,2.826 64.32,21.532 
	64.32,33.527 59.42,33.527 59.42,21.532 "/>
<rect x="85.004" y="2.826" fill="#685040" width="4.9" height="30.701"/>
<path fill="#685040" d="M98.547,24.023v0.775c0,3.74,1.635,5.634,5.031,5.634c3.096,0,4.645-2.191,4.645-4.474
	c0-3.225-1.635-4.645-4.387-5.461l-3.353-1.16c-4.473-1.721-6.409-4.043-6.409-8.428c0-5.59,3.786-8.688,9.547-8.688
	c7.869,0,8.686,4.903,8.686,8.084v0.69h-4.903v-0.647c0-2.795-1.246-4.427-4.298-4.427c-2.108,0-4.129,1.16-4.129,4.427
	c0,2.623,1.334,3.957,4.601,5.203l3.311,1.206c4.344,1.546,6.234,3.912,6.234,8.127c0,6.535-3.955,9.244-10.146,9.244
	c-7.612,0-9.332-5.073-9.332-9.373v-0.732H98.547"/>
<path fill="#E6B711" d="M142.578,29.959h-0.086c-1.334,2.838-3.095,4.17-6.709,4.17c-6.707,0-9.115-4.988-9.115-15.953
	s3.096-15.954,10.192-15.954c7.695,0,8.986,6.065,8.986,8.86v0.558h-4.645v-0.73c0-2.279-0.945-4.988-4.298-4.988
	c-3.485,0-5.333,2.322-5.333,12.125c0,9.891,1.633,12.385,4.944,12.385c3.742,0.043,5.117-2.666,5.117-9.375h-5.16v-3.698h9.805
	v16.168h-3.698V29.959"/>
<path fill="#E6B711" d="M149.758,18.176c0-10.965,3.098-15.954,10.148-15.954c7.053,0,10.149,4.989,10.149,15.954
	s-3.096,15.953-10.149,15.953C152.856,34.129,149.758,29.141,149.758,18.176 M165.153,18.047c0-10.321-2.323-12.125-5.247-12.125
	c-2.923,0-5.246,1.804-5.246,12.125c0,10.578,2.323,12.385,5.246,12.385C162.83,30.432,165.153,28.625,165.153,18.047z"/>
<polyline fill="#E6B711" points="173.838,2.826 178.74,2.826 178.74,29.398 190.609,29.398 190.609,33.527 173.838,33.527 
	173.838,2.826 "/>
<path fill="#E6B711" d="M193.49,2.826h8.729c9.631,0,10.836,6.277,10.836,15.35c0,9.074-1.205,15.352-10.836,15.352h-8.729V2.826
	 M198.391,29.831h4.043c4.041,0,5.719-2.666,5.719-11.654c0-8.643-1.463-11.653-5.719-11.653h-4.043V29.831z"/>
<polyline fill="#685040" points="227.717,2.826 235.371,2.826 240.789,25.573 240.875,25.573 246.207,2.826 253.689,2.826 
	253.689,33.527 249.045,33.527 249.045,7.986 248.959,7.986 242.768,33.527 238.639,33.527 232.447,7.986 232.361,7.986 
	232.361,33.527 227.717,33.527 227.717,2.826 "/>
<path fill="#685040" d="M258.031,18.176c0-10.965,3.096-15.954,10.148-15.954c7.051,0,10.146,4.989,10.146,15.954
	s-3.097,15.953-10.146,15.953C261.127,34.129,258.031,29.141,258.031,18.176 M273.426,18.047c0-10.321-2.322-12.125-5.246-12.125
	s-5.246,1.804-5.246,12.125c0,10.578,2.322,12.385,5.246,12.385S273.426,28.625,273.426,18.047z"/>
<polyline fill="#685040" points="282.67,2.826 288.646,2.826 297.549,25.702 297.635,25.702 297.635,2.826 302.277,2.826 
	302.277,33.527 296.301,33.527 287.4,10.049 287.314,10.049 287.314,33.527 282.67,33.527 282.67,2.826 "/>
<polyline fill="#685040" points="312.383,6.953 305.072,6.953 305.072,2.826 324.465,2.826 324.465,6.953 317.285,6.953 
	317.285,33.527 312.383,33.527 312.383,6.953 "/>
<polyline fill="#685040" points="327.262,2.826 332.162,2.826 332.162,15.123 341.193,15.123 341.193,2.826 346.096,2.826 
	346.096,33.527 341.193,33.527 341.193,19.252 332.162,19.252 332.162,33.527 327.262,33.527 327.262,2.826 "/>
</svg>
