<?xml version="1.0" encoding="utf-8"?>
<!-- Generator: Adobe Illustrator 16.0.4, SVG Export Plug-In . SVG Version: 6.00 Build 0)  -->
<!DOCTYPE svg PUBLIC "-//W3C//DTD SVG 1.1//EN" "http://www.w3.org/Graphics/SVG/1.1/DTD/svg11.dtd">
<svg version="1.1" id="Layer_1" xmlns="http://www.w3.org/2000/svg" xmlns:xlink="http://www.w3.org/1999/xlink" x="0px" y="0px"
	 width="455px" height="218.861px" viewBox="-16.781 -8.139 455 218.861" enable-background="new -16.781 -8.139 455 218.861"
	 xml:space="preserve">
<path fill="#694F40" d="M111.902,0.423H15.099C6.76,0.423,0,7.166,0,15.485v96.875c0,8.318,6.76,15.061,15.099,15.061h96.804
	c8.339,0,15.098-6.74,15.098-15.061V15.485C127,7.166,120.241,0.423,111.902,0.423z M88.22,18.439c0-1.957,1.59-3.544,3.552-3.544
	h17.171c1.962,0,3.552,1.587,3.552,3.544v17.13c0,1.957-1.59,3.543-3.552,3.543H91.771c-1.962,0-3.552-1.586-3.552-3.543
	L88.22,18.439L88.22,18.439z M63.648,39.705c13.488,0,24.423,10.91,24.423,24.365c0,13.457-10.935,24.365-24.423,24.365
	c-13.488,0-24.422-10.908-24.422-24.365C39.226,50.615,50.16,39.705,63.648,39.705z M112.79,109.111c0,1.957-1.59,3.543-3.552,3.543
	h-91.18c-1.962,0-3.553-1.586-3.553-3.543V53.88h11.883c-0.894,3.248-1.373,6.664-1.373,10.189c0,21.252,17.33,38.543,38.633,38.543
	c21.302,0,38.633-17.291,38.633-38.543c0-3.525-0.479-6.941-1.373-10.189h11.882V109.111z"/>
<text transform="matrix(1 0 0 1 141.5928 200.2322)" fill="#694F40" font-family="'HelveticaNeue-UltraLight'" font-size="170.3017">WIN</text>
<text transform="matrix(1 0 0 1 134.437 66.7214)" fill="#694F40" font-family="'Helvetica'" font-size="89">PIC TO</text>
</svg>
