<?xml version="1.0" encoding="utf-8"?>
<!-- Generator: Adobe Illustrator 16.0.4, SVG Export Plug-In . SVG Version: 6.00 Build 0)  -->
<!DOCTYPE svg PUBLIC "-//W3C//DTD SVG 1.1//EN" "http://www.w3.org/Graphics/SVG/1.1/DTD/svg11.dtd">
<svg version="1.1" id="Logo" xmlns="http://www.w3.org/2000/svg" xmlns:xlink="http://www.w3.org/1999/xlink" x="0px" y="0px"
	 width="543px" height="324px" viewBox="0 0 543 324" enable-background="new 0 0 543 324" xml:space="preserve">
<g>
	<rect x="10.5" y="9.5" fill="#FFFFFF" stroke="#FDF5C2" stroke-width="5" stroke-miterlimit="10" width="522" height="305"/>
	<path fill="#694F41" d="M161.867,49.511H67.959c-8.088,0-14.646,6.54-14.646,14.612v93.976c0,8.069,6.558,14.61,14.646,14.61
		h93.908c8.089,0,14.646-6.541,14.646-14.61V64.123C176.514,56.051,169.956,49.511,161.867,49.511z M138.893,66.987
		c0-1.898,1.542-3.437,3.446-3.437h16.656c1.903,0,3.445,1.538,3.445,3.437v16.618c0,1.898-1.542,3.438-3.445,3.438h-16.656
		c-1.904,0-3.446-1.539-3.446-3.438V66.987z M115.058,87.616c13.085,0,23.691,10.584,23.691,23.637
		c0,13.055-10.606,23.637-23.691,23.637s-23.693-10.582-23.693-23.637C91.364,98.2,101.973,87.616,115.058,87.616z M162.728,154.946
		c0,1.897-1.542,3.437-3.444,3.437H70.833c-1.904,0-3.446-1.538-3.446-3.437v-53.578h11.527c-0.868,3.15-1.332,6.465-1.332,9.885
		c0,20.616,16.812,37.391,37.477,37.391c20.663,0,37.477-16.773,37.477-37.391c0-3.42-0.466-6.732-1.331-9.885h11.524
		L162.728,154.946L162.728,154.946z"/>
	<g>
		<path fill="#694F41" d="M352.86,139.961l-37.05,127.797h-4.833l-37.586-123.321h-0.358l-36.871,123.321h-4.833l-37.587-127.797
			h3.58l36.155,123.323h0.355l36.871-123.323h5.191l37.407,123.323h0.356l35.62-123.323H352.86L352.86,139.961z"/>
		<path fill="#694F41" d="M364.314,139.961v127.797h-3.579V139.961H364.314z"/>
		<path fill="#694F41" d="M389.014,139.961l87.347,123.323h0.356V139.961h3.58v127.797h-5.369l-87.347-123.321h-0.356v123.321h-3.58
			V139.961H389.014z"/>
	</g>
	<g>
		<path fill="#694F41" d="M222.142,55.161c6.865,0,12.06,1.768,15.586,5.291c3.529,3.53,5.289,8.472,5.289,14.825
			s-1.76,11.312-5.289,14.872c-3.526,3.561-8.721,5.308-15.586,5.245H201.36v27.837h-9.059v-68.07H222.142z M219.091,87.769
			c5.147,0.062,8.916-0.985,11.296-3.149c2.382-2.157,3.577-5.276,3.577-9.342c0-4.063-1.195-7.161-3.577-9.292
			c-2.381-2.127-6.147-3.196-11.296-3.196h-17.73v24.979H219.091z"/>
		<path fill="#694F41" d="M263.515,55.161v68.07h-9.06v-68.07H263.515z"/>
		<path fill="#694F41" d="M319.901,64.788c-3.465-2.411-7.577-3.614-12.344-3.614c-4.07,0-7.549,0.761-10.438,2.28
			c-2.895,1.53-5.274,3.577-7.147,6.151c-1.878,2.577-3.259,5.518-4.146,8.822c-0.892,3.305-1.338,6.733-1.338,10.294
			c0,3.88,0.446,7.55,1.338,11.01c0.89,3.467,2.271,6.485,4.146,9.054c1.873,2.577,4.271,4.624,7.193,6.151
			c2.928,1.527,6.422,2.289,10.485,2.289c2.986,0,5.641-0.496,7.964-1.48c2.315-0.985,4.321-2.352,6.005-4.098
			c1.686-1.746,3.002-3.824,3.957-6.244c0.954-2.413,1.523-5.021,1.715-7.813h9.06c-0.895,8.574-3.852,15.253-8.868,20.017
			c-5.021,4.764-11.886,7.152-20.59,7.152c-5.275,0-9.885-0.908-13.825-2.724c-3.941-1.808-7.212-4.298-9.818-7.478
			c-2.604-3.183-4.562-6.929-5.858-11.25c-1.307-4.321-1.955-8.961-1.955-13.919c0-4.956,0.697-9.611,2.095-13.964
			c1.399-4.353,3.448-8.153,6.151-11.396c2.7-3.242,6.065-5.794,10.104-7.673c4.034-1.877,8.658-2.815,13.867-2.815
			c3.562,0,6.928,0.48,10.109,1.435c3.176,0.955,6.004,2.351,8.481,4.191c2.479,1.846,4.541,4.149,6.194,6.911
			c1.652,2.77,2.73,5.958,3.243,9.58h-9.06C325.606,70.834,323.365,67.21,319.901,64.788z"/>
		<path fill="#694F41" d="M366.852,62.789v-7.628h54.437v7.628H398.6v60.442h-9.06V62.789H366.852L366.852,62.789z"/>
		<path fill="#694F41" d="M427.052,75.805c1.364-4.289,3.417-8.09,6.146-11.396c2.734-3.305,6.133-5.944,10.202-7.913
			c4.065-1.963,8.802-2.956,14.205-2.956c5.397,0,10.136,0.993,14.205,2.956c4.065,1.969,7.467,4.608,10.198,7.913
			c2.733,3.306,4.78,7.106,6.146,11.396c1.369,4.291,2.053,8.752,2.053,13.392c0,4.639-0.684,9.108-2.053,13.4
			c-1.366,4.288-3.413,8.082-6.146,11.387c-2.731,3.306-6.133,5.928-10.198,7.867c-4.069,1.939-8.808,2.908-14.205,2.908
			c-5.403,0-10.14-0.969-14.205-2.908c-4.069-1.939-7.468-4.562-10.202-7.867c-2.729-3.305-4.782-7.099-6.146-11.387
			c-1.365-4.292-2.047-8.762-2.047-13.4C425.005,84.557,425.687,80.096,427.052,75.805z M435.396,99.352
			c0.888,3.336,2.285,6.338,4.193,9.008c1.907,2.668,4.353,4.815,7.34,6.438c2.984,1.614,6.547,2.43,10.679,2.43
			c4.131,0,7.688-0.814,10.675-2.43c2.987-1.622,5.438-3.771,7.343-6.438c1.904-2.67,3.304-5.672,4.193-9.008
			c0.889-3.336,1.336-6.719,1.336-10.155c0-3.429-0.447-6.811-1.336-10.147c-0.892-3.344-2.289-6.347-4.193-9.015
			c-1.905-2.67-4.354-4.811-7.343-6.433c-2.986-1.62-6.544-2.428-10.675-2.428c-4.132,0-7.692,0.808-10.679,2.428
			c-2.987,1.622-5.433,3.763-7.34,6.433c-1.908,2.668-3.308,5.671-4.193,9.015c-0.895,3.337-1.334,6.719-1.334,10.147
			C434.062,92.633,434.503,96.016,435.396,99.352z"/>
	</g>
</g>
</svg>
