<?xml version="1.0" encoding="utf-8"?>
<!-- Generator: Adobe Illustrator 16.0.4, SVG Export Plug-In . SVG Version: 6.00 Build 0)  -->
<!DOCTYPE svg PUBLIC "-//W3C//DTD SVG 1.1//EN" "http://www.w3.org/Graphics/SVG/1.1/DTD/svg11.dtd">
<svg version="1.1" id="Logo" xmlns="http://www.w3.org/2000/svg" xmlns:xlink="http://www.w3.org/1999/xlink" x="0px" y="0px"
	 width="538px" height="323px" viewBox="155.664 64.929 538 323" enable-background="new 155.664 64.929 538 323"
	 xml:space="preserve">
<g>
	<rect x="164.221" y="75" fill="#FFFFFF" stroke="#FDF5C2" stroke-width="5" stroke-miterlimit="10" width="522" height="305"/>
	<path fill="#694F41" d="M287.077,105.282c-63.704,0-95.825,45.675-95.825,83.761c0,23.061,8.73,43.578,27.458,51.225
		c3.069,1.255,5.82,0.044,6.712-3.356c0.619-2.354,2.085-8.289,2.739-10.761c0.897-3.362,0.549-4.542-1.929-7.473
		c-5.4-6.37-8.851-14.616-8.851-26.295c0-33.883,25.353-64.218,66.016-64.218c36.007,0,55.79,22,55.79,51.383
		c0,38.662-17.109,71.292-42.51,71.292c-14.027,0-24.527-11.602-21.162-25.83c4.031-16.985,11.838-35.316,11.838-47.578
		c0-10.976-5.892-20.128-18.085-20.128c-14.339,0-25.856,14.833-25.856,34.704c0,12.656,4.275,21.217,4.275,21.217
		s-14.674,62.176-17.246,73.063c-5.123,21.684-0.771,48.268-0.402,50.953c0.216,1.592,2.261,1.969,3.187,0.768
		c1.321-1.729,18.4-22.812,24.207-43.877c1.643-5.967,9.433-36.856,9.433-36.856c4.658,8.886,18.272,16.713,32.752,16.713
		c43.104,0,72.347-39.295,72.347-91.893C371.964,142.321,338.277,105.282,287.077,105.282z"/>
	<path fill="#694F41" d="M403.262,123.634v81.492H392.42v-81.492H403.262z"/>
	<path fill="#694F41" d="M432.938,123.634l42.909,66.083h0.229v-66.083h10.271v81.492h-11.87l-42.57-65.397h-0.228v65.397h-10.271
		v-81.492H432.938z"/>
	<path fill="#694F41" d="M506.084,132.764v-9.13h65.168v9.13H544.09v72.362h-10.843v-72.362H506.084z"/>
	<path fill="#694F41" d="M578.153,148.349c1.636-5.137,4.092-9.687,7.359-13.644c3.275-3.956,7.344-7.115,12.214-9.475
		c4.866-2.35,10.537-3.537,17.008-3.537c6.462,0,12.133,1.188,17.005,3.537c4.868,2.359,8.94,5.519,12.21,9.475
		c3.272,3.957,5.726,8.507,7.358,13.644c1.643,5.136,2.458,10.476,2.458,16.028c0,5.558-0.815,10.906-2.458,16.042
		c-1.634,5.138-4.086,9.679-7.358,13.637c-3.27,3.954-7.342,7.095-12.21,9.416c-4.872,2.322-10.543,3.485-17.005,3.485
		c-6.471,0-12.142-1.163-17.008-3.485c-4.87-2.321-8.938-5.462-12.214-9.416c-3.269-3.958-5.725-8.499-7.359-13.637
		c-1.634-5.136-2.453-10.484-2.453-16.042C575.7,158.824,576.52,153.484,578.153,148.349z M588.143,176.537
		c1.063,3.994,2.735,7.59,5.021,10.784c2.284,3.194,5.21,5.768,8.787,7.708c3.574,1.934,7.838,2.906,12.784,2.906
		c4.944,0,9.202-0.973,12.777-2.906c3.577-1.94,6.509-4.514,8.792-7.708c2.281-3.194,3.951-6.79,5.021-10.784
		c1.062-3.993,1.597-8.044,1.597-12.16c0-4.104-0.534-8.15-1.597-12.146c-1.069-4.003-2.739-7.598-5.021-10.791
		c-2.283-3.195-5.215-5.761-8.792-7.7c-3.575-1.942-7.833-2.907-12.777-2.907c-4.946,0-9.21,0.965-12.784,2.907
		c-3.577,1.939-6.503,4.505-8.787,7.7c-2.285,3.193-3.957,6.788-5.021,10.791c-1.066,3.996-1.597,8.043-1.597,12.146
		C586.546,168.493,587.075,172.544,588.143,176.537z"/>
	<path fill="#694F41" d="M529.55,224.442l-32.814,113.202h-4.284l-33.294-109.228h-0.315l-32.66,109.228h-4.277l-33.293-113.202
		h3.17l32.026,109.241h0.314l32.655-109.241h4.601l33.137,109.241h0.316l31.546-109.241H529.55L529.55,224.442z"/>
	<path fill="#694F41" d="M539.697,224.442v113.202h-3.175V224.442H539.697z"/>
	<path fill="#694F41" d="M561.564,224.442l77.365,109.241h0.322V224.442h3.167v113.202h-4.752L560.3,228.417h-0.314v109.227h-3.173
		V224.442H561.564z"/>
</g>
</svg>
