<?xml version="1.0" encoding="utf-8"?>
<!-- Generator: Adobe Illustrator 16.0.4, SVG Export Plug-In . SVG Version: 6.00 Build 0)  -->
<!DOCTYPE svg PUBLIC "-//W3C//DTD SVG 1.1//EN" "http://www.w3.org/Graphics/SVG/1.1/DTD/svg11.dtd">
<svg version="1.1" id="Logo" xmlns="http://www.w3.org/2000/svg" xmlns:xlink="http://www.w3.org/1999/xlink" x="0px" y="0px"
	 width="545px" height="327px" viewBox="179.664 59.929 545 327" enable-background="new 179.664 59.929 545 327"
	 xml:space="preserve">
<g>
	<rect x="191.647" y="71.943" fill="#FFFFFF" stroke="#FDF5C2" stroke-width="5" stroke-miterlimit="10" width="522" height="305"/>
	<g>
		<path fill="#694F41" d="M315.169,108.904l10.391,69.447h0.264l11.048-69.447h18.15l11.048,69.447h0.265l10.39-69.447h18.152
			l-17.1,93.912h-21.176l-10.523-68.133h-0.263l-10.521,68.133h-21.177l-17.099-93.912H315.169z"/>
		<path fill="#694F41" d="M403.424,108.904h18.939v93.912h-18.939V108.904z"/>
		<path fill="#694F41" d="M481.156,173.221h0.263v-64.316h17.364v93.912h-21.572l-23.148-65.766h-0.265v65.766h-17.359v-93.912
			h21.833L481.156,173.221z"/>
		<path fill="#694F41" d="M580.329,108.904l24.856,93.912H585.46l-4.341-19.861h-24.991l-4.341,19.861h-19.729l24.859-93.912
			H580.329z M577.832,167.434l-9.078-42.219h-0.264l-9.072,42.219H577.832z"/>
		<path fill="#694F41" d="M308.827,282.389c1.299,3.229,3.118,5.885,5.456,7.963c2.339,2.08,5.141,3.617,8.407,4.621
			c3.266,1.002,6.865,1.577,10.802,1.728v-39.644c-3.193-0.742-6.365-1.521-9.521-2.338c-3.155-0.816-5.995-1.949-8.519-3.396
			c-2.523-1.449-4.564-3.357-6.125-5.734c-1.559-2.377-2.338-5.492-2.338-9.355c0-3.859,0.797-7.105,2.395-9.744
			c1.596-2.633,3.656-4.75,6.181-6.346c2.522-1.596,5.362-2.729,8.519-3.395c3.154-0.67,6.291-1.004,9.409-1.004v-4.789h2.227v4.9
			c3.712,0.074,7.144,0.574,10.3,1.502c3.156,0.932,5.904,2.338,8.24,4.232c2.34,1.893,4.193,4.344,5.568,7.35
			c1.371,3.006,2.171,6.664,2.395,10.968h-2.228c-0.149-3.933-0.854-7.255-2.114-9.964c-1.264-2.711-2.971-4.938-5.124-6.684
			c-2.153-1.742-4.677-3.023-7.572-3.842c-2.896-0.814-6.052-1.26-9.465-1.336v37.193l0.892,0.223
			c3.711,0.965,7.219,1.894,10.523,2.783c3.302,0.891,6.18,2.08,8.629,3.562c2.449,1.486,4.399,3.453,5.848,5.902
			c1.445,2.451,2.17,5.756,2.17,9.912c0,3.784-0.816,7.014-2.449,9.686c-1.633,2.674-3.787,4.883-6.46,6.625
			c-2.671,1.746-5.678,3.01-9.019,3.787c-3.34,0.779-6.721,1.17-10.134,1.17v9.799h-2.227v-9.91
			c-4.231-0.15-8.13-0.779-11.691-1.893c-3.563-1.115-6.626-2.82-9.188-5.123c-2.561-2.301-4.547-5.178-5.957-8.629
			c-1.411-3.453-2.078-7.59-2.005-12.416h2.228C306.878,275.281,307.526,279.16,308.827,282.389z M325.029,218.861
			c-2.896,0.594-5.512,1.598-7.851,3.006c-2.338,1.412-4.25,3.287-5.734,5.625c-1.485,2.338-2.227,5.252-2.227,8.74
			c0,3.342,0.668,6.051,2.004,8.129c1.336,2.08,3.135,3.77,5.4,5.066c2.265,1.301,4.861,2.34,7.795,3.119
			c2.932,0.779,5.957,1.502,9.075,2.172v-36.746C330.745,217.973,327.925,218.27,325.029,218.861z M345.017,295.753
			c3.081-0.707,5.848-1.84,8.297-3.397c2.449-1.558,4.434-3.562,5.957-6.013c1.521-2.45,2.283-5.383,2.283-8.797
			c0-3.787-0.799-6.83-2.394-9.133c-1.598-2.299-3.64-4.137-6.126-5.512c-2.487-1.371-5.251-2.43-8.297-3.174
			c-3.043-0.74-6.049-1.447-9.019-2.113v39.195C338.837,296.811,341.937,296.458,345.017,295.753z"/>
		<path fill="#694F41" d="M398.856,224.318c-2.303,3.193-5.289,5.957-8.964,8.295c-3.676,2.338-7.404,4.027-11.19,5.066v-2.227
			c2.299-0.74,4.343-1.56,6.124-2.449c1.782-0.892,3.452-1.894,5.012-3.008c1.559-1.111,3.062-2.375,4.51-3.785
			c1.447-1.408,2.951-3.008,4.509-4.787h2.448v75.721h-2.226v-72.826H398.856z"/>
		<path fill="#694F41" d="M485.993,273.425c-0.93,4.677-2.506,8.871-4.732,12.584c-2.226,3.714-5.162,6.701-8.799,8.964
			c-3.637,2.264-8.202,3.396-13.695,3.396c-5.42,0-9.967-1.133-13.641-3.396c-3.675-2.263-6.626-5.25-8.853-8.964
			c-2.228-3.713-3.807-7.907-4.732-12.584c-0.93-4.678-1.394-9.389-1.394-14.143c0-4.75,0.464-9.465,1.394-14.141
			c0.927-4.678,2.506-8.869,4.732-12.584c2.227-3.711,5.178-6.717,8.853-9.02c3.674-2.301,8.221-3.451,13.641-3.451
			c5.493,0,10.06,1.15,13.695,3.451c3.637,2.303,6.572,5.309,8.799,9.02c2.228,3.715,3.804,7.906,4.732,12.584
			c0.927,4.676,1.392,9.391,1.392,14.141C487.385,264.037,486.92,268.748,485.993,273.425z M483.934,246.367
			c-0.816-4.381-2.227-8.352-4.232-11.916c-2.004-3.562-4.694-6.477-8.07-8.742c-3.382-2.264-7.669-3.395-12.863-3.395
			c-5.195,0-9.482,1.131-12.861,3.395c-3.378,2.266-6.069,5.18-8.073,8.742c-2.004,3.564-3.413,7.535-4.23,11.916
			c-0.817,4.379-1.225,8.687-1.225,12.916c0,4.232,0.406,8.537,1.225,12.918c0.817,4.381,2.228,8.35,4.23,11.914
			c2.004,3.562,4.695,6.479,8.073,8.742c3.379,2.264,7.666,3.395,12.861,3.395c5.194,0,9.481-1.131,12.863-3.395
			c3.376-2.264,6.066-5.18,8.07-8.742c2.007-3.564,3.416-7.533,4.232-11.914s1.226-8.686,1.226-12.918
			C485.158,255.053,484.75,250.746,483.934,246.367z"/>
		<path fill="#694F41" d="M547.906,273.425c-0.93,4.677-2.506,8.871-4.732,12.584c-2.226,3.714-5.162,6.701-8.799,8.964
			c-3.636,2.264-8.202,3.396-13.694,3.396c-5.42,0-9.967-1.133-13.642-3.396c-3.674-2.263-6.626-5.25-8.854-8.964
			c-2.227-3.713-3.806-7.907-4.731-12.584c-0.929-4.678-1.395-9.389-1.395-14.143c0-4.75,0.466-9.465,1.395-14.141
			c0.927-4.678,2.506-8.869,4.731-12.584c2.228-3.711,5.18-6.717,8.854-9.02c3.675-2.301,8.222-3.451,13.642-3.451
			c5.492,0,10.06,1.15,13.694,3.451c3.637,2.303,6.572,5.309,8.799,9.02c2.228,3.715,3.805,7.906,4.732,12.584
			c0.927,4.676,1.392,9.391,1.392,14.141C549.298,264.037,548.833,268.748,547.906,273.425z M545.847,246.367
			c-0.818-4.381-2.227-8.352-4.232-11.916c-2.003-3.562-4.694-6.477-8.07-8.742c-3.382-2.264-7.668-3.395-12.862-3.395
			c-5.196,0-9.483,1.131-12.861,3.395c-3.379,2.266-6.07,5.18-8.074,8.742c-2.003,3.564-3.413,7.535-4.229,11.916
			c-0.818,4.379-1.225,8.687-1.225,12.916c0,4.232,0.405,8.537,1.225,12.918c0.816,4.381,2.228,8.35,4.229,11.914
			c2.004,3.562,4.695,6.479,8.074,8.742c3.378,2.264,7.665,3.395,12.861,3.395c5.194,0,9.48-1.131,12.862-3.395
			c3.376-2.264,6.067-5.18,8.07-8.742c2.007-3.564,3.414-7.533,4.232-11.914c0.816-4.381,1.226-8.686,1.226-12.918
			C547.071,255.053,546.663,250.746,545.847,246.367z"/>
		<path fill="#694F41" d="M609.817,273.425c-0.928,4.677-2.505,8.871-4.732,12.584c-2.227,3.714-5.16,6.701-8.796,8.964
			c-3.64,2.264-8.203,3.396-13.695,3.396c-5.42,0-9.967-1.133-13.642-3.396c-3.674-2.263-6.626-5.25-8.854-8.964
			c-2.229-3.713-3.806-7.907-4.73-12.584c-0.931-4.678-1.396-9.389-1.396-14.143c0-4.75,0.465-9.465,1.396-14.141
			c0.926-4.678,2.503-8.869,4.73-12.584c2.228-3.711,5.18-6.717,8.854-9.02c3.675-2.301,8.222-3.451,13.642-3.451
			c5.492,0,10.057,1.15,13.695,3.451c3.636,2.303,6.569,5.309,8.796,9.02c2.229,3.715,3.806,7.906,4.732,12.584
			c0.929,4.676,1.394,9.391,1.394,14.141C611.211,264.037,610.746,268.748,609.817,273.425z M607.76,246.367
			c-0.818-4.381-2.229-8.352-4.232-11.916c-2.003-3.562-4.694-6.477-8.073-8.742c-3.379-2.264-7.665-3.395-12.859-3.395
			c-5.196,0-9.485,1.131-12.861,3.395c-3.38,2.266-6.07,5.18-8.073,8.742c-2.004,3.564-3.417,7.535-4.23,11.916
			c-0.818,4.379-1.228,8.687-1.228,12.916c0,4.232,0.408,8.537,1.228,12.918c0.813,4.381,2.228,8.35,4.23,11.914
			c2.003,3.562,4.693,6.479,8.073,8.742c3.376,2.264,7.665,3.395,12.861,3.395c5.194,0,9.48-1.131,12.859-3.395
			s6.07-5.18,8.073-8.742c2.004-3.564,3.414-7.533,4.232-11.914c0.813-4.381,1.226-8.686,1.226-12.918
			C608.984,255.053,608.573,250.746,607.76,246.367z"/>
		<g>
			<path fill="#694F41" d="M309.31,320.179c-1.164-0.842-2.648-1.264-4.461-1.264c-0.732,0-1.457,0.072-2.166,0.219
				c-0.709,0.148-1.338,0.395-1.889,0.734c-0.551,0.342-0.991,0.801-1.322,1.377c-0.33,0.576-0.495,1.289-0.495,2.146
				c0,0.809,0.239,1.463,0.716,1.963c0.477,0.502,1.113,0.914,1.908,1.23c0.795,0.318,1.695,0.584,2.699,0.789
				c1.002,0.209,2.025,0.436,3.064,0.68c1.039,0.244,2.062,0.533,3.064,0.863c1.005,0.33,1.903,0.777,2.698,1.34
				c0.796,0.561,1.432,1.273,1.909,2.127c0.477,0.857,0.717,1.934,0.717,3.23c0,1.395-0.313,2.588-0.938,3.58
				c-0.623,0.99-1.426,1.799-2.404,2.424c-0.978,0.623-2.073,1.076-3.285,1.355c-1.211,0.281-2.417,0.424-3.616,0.424
				c-1.468,0-2.856-0.186-4.165-0.553c-1.31-0.365-2.459-0.922-3.45-1.67c-0.991-0.746-1.775-1.701-2.351-2.861
				c-0.574-1.162-0.861-2.539-0.861-4.133h3.303c0,1.104,0.215,2.053,0.643,2.848c0.428,0.795,0.99,1.447,1.689,1.963
				c0.696,0.516,1.51,0.895,2.439,1.139c0.931,0.244,1.885,0.367,2.865,0.367c0.781,0,1.57-0.074,2.365-0.219
				c0.795-0.148,1.512-0.398,2.147-0.752c0.638-0.355,1.151-0.842,1.543-1.451c0.392-0.613,0.586-1.396,0.586-2.352
				c0-0.904-0.237-1.639-0.715-2.201s-1.114-1.021-1.909-1.379c-0.795-0.354-1.693-0.641-2.698-0.859
				c-1.003-0.221-2.023-0.447-3.064-0.68c-1.04-0.232-2.062-0.5-3.065-0.809c-1.002-0.307-1.902-0.709-2.697-1.211
				c-0.795-0.504-1.432-1.15-1.909-1.947c-0.478-0.793-0.716-1.791-0.716-2.988c0-1.32,0.27-2.467,0.807-3.434
				c0.539-0.967,1.255-1.762,2.148-2.387s1.908-1.09,3.047-1.396c1.139-0.305,2.307-0.459,3.504-0.459
				c1.346,0,2.596,0.16,3.746,0.48c1.149,0.318,2.159,0.82,3.027,1.504c0.868,0.688,1.555,1.551,2.055,2.59
				c0.503,1.039,0.778,2.281,0.828,3.725h-3.304C311.151,322.388,310.472,321.025,309.31,320.179z"/>
			<path fill="#694F41" d="M323.46,316.601v11.27h13.802v-11.27h3.487v26.209h-3.487v-12.002H323.46v12.002h-3.488v-26.209H323.46z"
				/>
			<path fill="#694F41" d="M345.796,324.548c0.526-1.648,1.314-3.113,2.367-4.387c1.052-1.271,2.362-2.289,3.928-3.047
				c1.566-0.756,3.391-1.139,5.469-1.139c2.08,0,3.904,0.383,5.471,1.139c1.566,0.758,2.874,1.775,3.928,3.047
				c1.053,1.273,1.84,2.736,2.368,4.387c0.524,1.652,0.788,3.373,0.788,5.158s-0.264,3.506-0.788,5.156
				c-0.528,1.652-1.315,3.115-2.368,4.387c-1.054,1.273-2.361,2.283-3.928,3.029c-1.567,0.746-3.391,1.119-5.471,1.119
				c-2.078,0-3.902-0.373-5.469-1.119c-1.565-0.746-2.876-1.756-3.928-3.029c-1.053-1.271-1.841-2.734-2.367-4.387
				c-0.526-1.65-0.789-3.371-0.789-5.156S345.27,326.201,345.796,324.548z M349.008,333.615c0.343,1.287,0.882,2.441,1.614,3.471
				c0.734,1.025,1.676,1.852,2.827,2.477c1.151,0.625,2.521,0.938,4.11,0.938c1.592,0,2.963-0.312,4.112-0.938
				s2.092-1.449,2.827-2.477c0.734-1.029,1.271-2.184,1.615-3.471c0.341-1.283,0.513-2.586,0.513-3.908s-0.172-2.625-0.513-3.91
				c-0.344-1.285-0.881-2.438-1.615-3.467c-0.735-1.029-1.678-1.855-2.827-2.48c-1.149-0.623-2.521-0.934-4.112-0.934
				c-1.59,0-2.959,0.311-4.11,0.934c-1.151,0.625-2.093,1.451-2.827,2.48c-0.732,1.027-1.271,2.182-1.614,3.467
				c-0.344,1.285-0.515,2.588-0.515,3.91S348.664,332.332,349.008,333.615z"/>
			<path fill="#694F41" d="M385.861,316.601c2.643,0,4.643,0.682,6.002,2.037c1.358,1.359,2.037,3.262,2.037,5.707
				c0,2.449-0.679,4.357-2.037,5.73c-1.359,1.371-3.359,2.043-6.002,2.018h-8.003v10.719h-3.485v-26.209h11.488V316.601z
				 M384.687,329.156c1.982,0.023,3.433-0.379,4.351-1.211c0.916-0.832,1.375-2.031,1.375-3.6c0-1.564-0.459-2.758-1.375-3.576
				c-0.918-0.822-2.368-1.23-4.351-1.23h-6.828v9.617H384.687z"/>
			<path fill="#694F41" d="M409.646,316.601c2.646,0,4.646,0.682,6.003,2.037c1.357,1.359,2.037,3.262,2.037,5.707
				c0,2.449-0.68,4.357-2.037,5.73c-1.356,1.371-3.357,2.043-6.003,2.018h-8.003v10.719h-3.485v-26.209h11.488V316.601z
				 M408.474,329.156c1.98,0.023,3.433-0.379,4.351-1.211c0.916-0.832,1.375-2.031,1.375-3.6c0-1.564-0.459-2.758-1.375-3.576
				c-0.918-0.822-2.369-1.23-4.351-1.23h-6.829v9.617H408.474z"/>
			<path fill="#694F41" d="M425.578,316.601v26.209h-3.485v-26.209H425.578z"/>
			<path fill="#694F41" d="M435.121,316.601l13.803,21.256h0.072v-21.256h3.304v26.209h-3.815l-13.692-21.031h-0.072v21.031h-3.304
				v-26.209H435.121z"/>
			<path fill="#694F41" d="M473.737,342.5c-1.518,0.598-3.048,0.898-4.59,0.898c-1.958,0-3.706-0.361-5.248-1.082
				c-1.541-0.723-2.854-1.695-3.928-2.92c-1.077-1.223-1.897-2.629-2.46-4.221c-0.562-1.59-0.846-3.242-0.846-4.955
				c0-1.908,0.263-3.727,0.792-5.451c0.523-1.727,1.308-3.236,2.348-4.533c1.039-1.297,2.337-2.33,3.893-3.102
				c1.553-0.771,3.371-1.158,5.449-1.158c1.421,0,2.762,0.168,4.021,0.498c1.26,0.33,2.386,0.85,3.377,1.561
				c0.99,0.709,1.823,1.607,2.497,2.695c0.672,1.092,1.131,2.406,1.375,3.945h-3.485c-0.172-1.002-0.488-1.863-0.953-2.586
				c-0.468-0.723-1.043-1.316-1.728-1.781c-0.686-0.463-1.461-0.812-2.331-1.045c-0.868-0.232-1.792-0.348-2.771-0.348
				c-1.591,0-2.954,0.316-4.091,0.953c-1.14,0.637-2.067,1.475-2.791,2.514c-0.723,1.041-1.254,2.229-1.598,3.561
				c-0.342,1.334-0.514,2.699-0.514,4.094c0,1.369,0.196,2.686,0.589,3.945c0.389,1.262,0.967,2.375,1.724,3.34
				c0.762,0.969,1.695,1.74,2.811,2.314c1.111,0.574,2.403,0.861,3.87,0.861c1.373,0,2.584-0.219,3.637-0.66
				c1.05-0.441,1.937-1.047,2.659-1.816c0.723-0.773,1.268-1.678,1.636-2.717c0.365-1.039,0.523-2.16,0.476-3.359h-8.368v-2.938
				h11.488v13.803h-2.202l-0.918-3.268C476.525,340.914,475.253,341.898,473.737,342.5z"/>
			<path fill="#694F41" d="M509.142,320.179c-1.161-0.842-2.649-1.264-4.461-1.264c-0.731,0-1.455,0.072-2.164,0.219
				c-0.712,0.146-1.341,0.395-1.892,0.734c-0.55,0.342-0.99,0.801-1.321,1.377c-0.33,0.576-0.496,1.289-0.496,2.146
				c0,0.809,0.238,1.463,0.718,1.963c0.478,0.502,1.11,0.914,1.906,1.23c0.795,0.318,1.694,0.584,2.698,0.789
				c1.005,0.209,2.025,0.436,3.065,0.68c1.039,0.244,2.062,0.533,3.063,0.863c1.004,0.33,1.904,0.777,2.699,1.34
				c0.795,0.561,1.432,1.273,1.909,2.127c0.476,0.857,0.715,1.934,0.715,3.23c0,1.395-0.312,2.588-0.935,3.58
				c-0.626,0.99-1.428,1.799-2.407,2.424c-0.979,0.623-2.073,1.076-3.284,1.355c-1.212,0.281-2.417,0.424-3.615,0.424
				c-1.47,0-2.856-0.186-4.166-0.553c-1.311-0.365-2.46-0.922-3.451-1.67c-0.99-0.746-1.774-1.701-2.35-2.861
				c-0.575-1.162-0.862-2.539-0.862-4.133h3.305c0,1.104,0.215,2.053,0.642,2.848c0.43,0.795,0.991,1.447,1.689,1.963
				c0.697,0.516,1.512,0.895,2.44,1.139s1.886,0.367,2.863,0.367c0.781,0,1.571-0.074,2.368-0.219
				c0.796-0.148,1.51-0.398,2.146-0.752c0.638-0.355,1.149-0.842,1.542-1.451c0.393-0.613,0.588-1.396,0.588-2.352
				c0-0.904-0.238-1.639-0.717-2.201c-0.476-0.562-1.112-1.021-1.907-1.379c-0.798-0.354-1.694-0.641-2.698-0.859
				c-1.006-0.221-2.025-0.447-3.064-0.68c-1.04-0.232-2.062-0.5-3.063-0.809c-1.006-0.307-1.904-0.709-2.699-1.211
				c-0.795-0.504-1.433-1.15-1.91-1.947c-0.477-0.793-0.714-1.791-0.714-2.988c0-1.32,0.269-2.467,0.808-3.434
				c0.538-0.967,1.252-1.762,2.146-2.387c0.894-0.625,1.908-1.09,3.049-1.396c1.136-0.305,2.304-0.459,3.505-0.459
				c1.346,0,2.592,0.16,3.744,0.48c1.148,0.318,2.159,0.82,3.025,1.504c0.867,0.688,1.557,1.551,2.056,2.59
				c0.502,1.039,0.779,2.281,0.827,3.725h-3.305C510.981,322.388,510.303,321.025,509.142,320.179z"/>
			<path fill="#694F41" d="M531.292,316.601c2.643,0,4.644,0.682,6.003,2.037c1.358,1.359,2.038,3.262,2.038,5.707
				c0,2.449-0.68,4.357-2.038,5.73c-1.359,1.371-3.36,2.043-6.003,2.018h-8.001v10.719h-3.486v-26.209h11.487V316.601z
				 M530.118,329.156c1.981,0.023,3.433-0.379,4.352-1.211c0.916-0.832,1.375-2.031,1.375-3.6c0-1.564-0.459-2.758-1.375-3.576
				c-0.919-0.822-2.369-1.23-4.352-1.23h-6.827v9.617H530.118z"/>
			<path fill="#694F41" d="M555.924,316.601c2.495,0,4.447,0.613,5.854,1.836c1.407,1.227,2.11,2.9,2.11,5.027
				c0,1.594-0.361,2.986-1.082,4.188c-0.723,1.197-1.881,2.02-3.471,2.459v0.07c0.758,0.148,1.378,0.395,1.854,0.736
				c0.479,0.344,0.855,0.752,1.139,1.23c0.283,0.477,0.489,1.01,0.623,1.598c0.135,0.588,0.239,1.201,0.313,1.836
				c0.047,0.637,0.083,1.285,0.107,1.945c0.024,0.658,0.086,1.309,0.186,1.943c0.098,0.639,0.236,1.242,0.423,1.818
				c0.183,0.574,0.459,1.082,0.823,1.521h-3.889c-0.245-0.268-0.411-0.637-0.497-1.102c-0.086-0.463-0.14-0.984-0.164-1.559
				c-0.023-0.576-0.051-1.193-0.075-1.855c-0.023-0.662-0.097-1.311-0.218-1.947c-0.1-0.635-0.223-1.24-0.368-1.814
				c-0.146-0.574-0.381-1.076-0.697-1.506c-0.316-0.428-0.733-0.771-1.25-1.027c-0.513-0.258-1.196-0.385-2.055-0.385h-8.517v11.193
				h-3.485v-26.209h12.334V316.601z M556.657,328.496c0.734-0.123,1.377-0.361,1.928-0.717s0.991-0.832,1.321-1.432
				c0.331-0.6,0.495-1.375,0.495-2.33c0-1.322-0.366-2.398-1.103-3.232c-0.732-0.83-1.921-1.246-3.559-1.246h-8.665v9.139h7.269
				C555.152,328.677,555.924,328.617,556.657,328.496z"/>
			<path fill="#694F41" d="M586.832,316.601v2.939h-14.611v8.33h13.62v2.938h-13.62v9.066h14.723v2.936h-18.207v-26.209H586.832z"/>
			<path fill="#694F41" d="M609.259,316.601v2.939H594.65v8.33h13.616v2.938H594.65v9.066h14.718v2.936h-18.204v-26.209H609.259z"/>
		</g>
	</g>
</g>
</svg>
