<?xml version="1.0" encoding="iso-8859-1"?>
<!-- Generator: Adobe Illustrator 16.0.4, SVG Export Plug-In . SVG Version: 6.00 Build 0)  -->
<!DOCTYPE svg PUBLIC "-//W3C//DTD SVG 1.1//EN" "http://www.w3.org/Graphics/SVG/1.1/DTD/svg11.dtd">
<svg version="1.1" id="Layer_1" xmlns="http://www.w3.org/2000/svg" xmlns:xlink="http://www.w3.org/1999/xlink" x="0px" y="0px"
	 width="439px" height="218px" viewBox="0 0 439 218" enable-background="new 0 0 439 218" xml:space="preserve">
<g>
	<path fill="#694F41" d="M118.75,26.107l7.556,50.502h0.191l8.034-50.502h13.2l8.034,50.502h0.192l7.556-50.502h13.2L164.278,94.4
		h-15.399l-7.652-49.546h-0.192L133.384,94.4h-15.4L105.55,26.107H118.75z"/>
	<path fill="#694F41" d="M182.929,26.107h13.773V94.4h-13.773V26.107z"/>
	<path fill="#694F41" d="M239.456,72.879h0.191V26.107h12.625V94.4h-15.686l-16.834-47.824h-0.191V94.4h-12.625V26.107h15.877
		L239.456,72.879z"/>
	<path fill="#694F41" d="M311.575,26.107L329.651,94.4h-14.347l-3.157-14.443h-18.173L290.819,94.4h-14.347l18.077-68.293H311.575z
		 M309.757,68.67l-6.601-30.702h-0.191l-6.599,30.702H309.757z"/>
	<path fill="#694F41" d="M114.138,152.266c0.944,2.349,2.268,4.279,3.968,5.79c1.701,1.512,3.738,2.632,6.114,3.361
		c2.375,0.729,4.992,1.147,7.854,1.255v-28.828c-2.322-0.539-4.629-1.106-6.924-1.701c-2.295-0.593-4.359-1.417-6.194-2.47
		c-1.836-1.052-3.32-2.442-4.454-4.17c-1.134-1.728-1.7-3.994-1.7-6.802c0-2.806,0.579-5.168,1.741-7.085
		c1.16-1.916,2.658-3.455,4.494-4.616c1.834-1.16,3.899-1.984,6.195-2.469c2.293-0.486,4.575-0.729,6.842-0.729v-3.482h1.62v3.563
		c2.698,0.054,5.195,0.418,7.49,1.093c2.294,0.676,4.292,1.701,5.992,3.078c1.701,1.376,3.049,3.158,4.049,5.344
		c0.998,2.187,1.579,4.846,1.741,7.976h-1.62c-0.109-2.86-0.621-5.275-1.539-7.247c-0.918-1.97-2.16-3.59-3.725-4.859
		c-1.566-1.268-3.401-2.199-5.506-2.794c-2.105-0.593-4.401-0.917-6.883-0.972v27.047l0.648,0.162
		c2.698,0.702,5.25,1.376,7.652,2.024c2.401,0.648,4.494,1.512,6.275,2.592s3.199,2.51,4.251,4.292
		c1.052,1.782,1.579,4.185,1.579,7.207c0,2.753-0.595,5.102-1.782,7.044c-1.188,1.944-2.753,3.55-4.697,4.818
		c-1.943,1.269-4.129,2.187-6.559,2.753s-4.887,0.851-7.369,0.851v7.125h-1.62v-7.207c-3.077-0.109-5.912-0.566-8.502-1.376
		c-2.592-0.811-4.818-2.051-6.681-3.725c-1.863-1.673-3.308-3.766-4.333-6.276c-1.026-2.511-1.512-5.52-1.458-9.029h1.62
		C112.72,147.098,113.192,149.918,114.138,152.266z M125.92,106.069c-2.105,0.432-4.008,1.161-5.709,2.186
		c-1.7,1.027-3.091,2.389-4.17,4.09c-1.08,1.7-1.619,3.82-1.619,6.356c0,2.429,0.486,4.401,1.458,5.911
		c0.972,1.513,2.28,2.741,3.928,3.685c1.646,0.945,3.535,1.701,5.668,2.267c2.132,0.567,4.332,1.093,6.6,1.579v-26.722
		C130.077,105.421,128.025,105.638,125.92,106.069z M140.455,161.984c2.24-0.513,4.252-1.336,6.033-2.47s3.225-2.591,4.332-4.372
		c1.106-1.782,1.66-3.914,1.66-6.398c0-2.753-0.581-4.966-1.741-6.64c-1.162-1.673-2.646-3.009-4.454-4.008
		c-1.809-0.998-3.819-1.768-6.033-2.308c-2.214-0.539-4.4-1.053-6.559-1.538v28.503C135.96,162.753,138.215,162.497,140.455,161.984
		z"/>
	<path fill="#694F41" d="M179.608,110.037c-1.674,2.322-3.847,4.332-6.519,6.032c-2.672,1.701-5.385,2.929-8.138,3.685v-1.62
		c1.672-0.539,3.158-1.133,4.453-1.781c1.296-0.648,2.511-1.376,3.644-2.187c1.134-0.81,2.227-1.727,3.28-2.753
		c1.053-1.024,2.146-2.186,3.28-3.481h1.781v55.064h-1.62v-52.959H179.608z"/>
	<path fill="#694F41" d="M242.973,145.748c-0.676,3.401-1.822,6.452-3.442,9.15c-1.619,2.701-3.753,4.873-6.397,6.519
		c-2.646,1.646-5.965,2.469-9.959,2.469c-3.941,0-7.248-0.823-9.92-2.469c-2.672-1.646-4.818-3.818-6.438-6.519
		c-1.62-2.699-2.767-5.749-3.441-9.15c-0.675-3.401-1.013-6.828-1.013-10.284c0-3.454,0.337-6.883,1.013-10.285
		c0.675-3.401,1.822-6.449,3.441-9.15c1.62-2.699,3.765-4.885,6.438-6.559c2.673-1.673,5.979-2.51,9.92-2.51
		c3.994,0,7.314,0.837,9.959,2.51c2.645,1.674,4.778,3.86,6.397,6.559c1.62,2.701,2.766,5.749,3.442,9.15
		c0.674,3.401,1.012,6.831,1.012,10.285C243.985,138.919,243.647,142.347,242.973,145.748z M241.475,126.07
		c-0.594-3.185-1.62-6.073-3.077-8.664c-1.457-2.592-3.415-4.71-5.871-6.357c-2.458-1.646-5.575-2.47-9.353-2.47
		c-3.78,0-6.897,0.824-9.353,2.47c-2.458,1.647-4.414,3.766-5.872,6.357c-1.457,2.591-2.483,5.479-3.077,8.664
		c-0.595,3.186-0.891,6.316-0.891,9.394s0.296,6.208,0.891,9.393c0.594,3.186,1.62,6.073,3.077,8.665
		c1.458,2.59,3.414,4.71,5.872,6.356c2.456,1.647,5.573,2.47,9.353,2.47c3.778,0,6.895-0.822,9.353-2.47
		c2.456-1.646,4.414-3.766,5.871-6.356c1.458-2.592,2.483-5.479,3.077-8.665c0.593-3.185,0.891-6.316,0.891-9.393
		S242.068,129.256,241.475,126.07z"/>
	<path fill="#694F41" d="M287.997,145.748c-0.676,3.401-1.823,6.452-3.442,9.15c-1.619,2.701-3.752,4.873-6.397,6.519
		c-2.646,1.646-5.966,2.469-9.96,2.469c-3.941,0-7.248-0.823-9.92-2.469c-2.672-1.646-4.818-3.818-6.438-6.519
		c-1.62-2.699-2.768-5.749-3.441-9.15c-0.676-3.401-1.013-6.828-1.013-10.284c0-3.454,0.337-6.883,1.013-10.285
		c0.674-3.401,1.822-6.449,3.441-9.15c1.62-2.699,3.765-4.885,6.438-6.559c2.672-1.673,5.979-2.51,9.92-2.51
		c3.994,0,7.314,0.837,9.96,2.51c2.645,1.674,4.778,3.86,6.397,6.559c1.62,2.701,2.767,5.749,3.442,9.15
		c0.674,3.401,1.012,6.831,1.012,10.285C289.008,138.919,288.67,142.347,287.997,145.748z M286.498,126.07
		c-0.595-3.185-1.62-6.073-3.077-8.664c-1.458-2.592-3.415-4.71-5.871-6.357c-2.458-1.646-5.575-2.47-9.353-2.47
		c-3.779,0-6.897,0.824-9.353,2.47c-2.458,1.647-4.414,3.766-5.871,6.357c-1.458,2.591-2.483,5.479-3.077,8.664
		c-0.595,3.186-0.891,6.316-0.891,9.394s0.296,6.208,0.891,9.393c0.594,3.186,1.62,6.073,3.077,8.665
		c1.458,2.59,3.414,4.71,5.871,6.356c2.456,1.647,5.574,2.47,9.353,2.47c3.778,0,6.896-0.822,9.353-2.47
		c2.456-1.646,4.413-3.766,5.871-6.356c1.458-2.592,2.482-5.479,3.077-8.665c0.593-3.185,0.891-6.316,0.891-9.393
		S287.091,129.256,286.498,126.07z"/>
	<path fill="#694F41" d="M333.019,145.748c-0.675,3.401-1.821,6.452-3.441,9.15c-1.619,2.701-3.753,4.873-6.397,6.519
		c-2.646,1.646-5.965,2.469-9.959,2.469c-3.941,0-7.248-0.823-9.92-2.469c-2.672-1.646-4.817-3.818-6.438-6.519
		c-1.62-2.699-2.767-5.749-3.441-9.15c-0.676-3.401-1.013-6.828-1.013-10.284c0-3.454,0.337-6.883,1.013-10.285
		c0.674-3.401,1.821-6.449,3.441-9.15c1.62-2.699,3.766-4.885,6.438-6.559c2.672-1.673,5.979-2.51,9.92-2.51
		c3.995,0,7.314,0.837,9.959,2.51c2.645,1.674,4.778,3.86,6.397,6.559c1.62,2.701,2.767,5.749,3.441,9.15
		c0.676,3.401,1.014,6.831,1.014,10.285C334.032,138.919,333.694,142.347,333.019,145.748z M331.521,126.07
		c-0.595-3.185-1.621-6.073-3.077-8.664c-1.458-2.592-3.415-4.71-5.871-6.357c-2.458-1.646-5.575-2.47-9.353-2.47
		c-3.779,0-6.897,0.824-9.353,2.47c-2.458,1.647-4.414,3.766-5.871,6.357c-1.458,2.591-2.484,5.479-3.077,8.664
		c-0.595,3.186-0.891,6.316-0.891,9.394s0.296,6.208,0.891,9.393c0.593,3.186,1.62,6.073,3.077,8.665
		c1.457,2.59,3.414,4.71,5.871,6.356c2.456,1.647,5.573,2.47,9.353,2.47c3.778,0,6.896-0.822,9.353-2.47
		c2.456-1.646,4.413-3.766,5.871-6.356c1.456-2.592,2.482-5.479,3.077-8.665c0.592-3.185,0.891-6.316,0.891-9.393
		S332.113,129.256,331.521,126.07z"/>
	<g>
		<path fill="#694F41" d="M114.489,179.748c-0.846-0.614-1.926-0.92-3.244-0.92c-0.533,0-1.059,0.053-1.575,0.16
			c-0.517,0.107-0.974,0.285-1.375,0.534s-0.721,0.583-0.961,1.001c-0.24,0.418-0.36,0.939-0.36,1.562
			c0,0.587,0.173,1.063,0.521,1.428c0.347,0.365,0.81,0.664,1.388,0.895c0.578,0.231,1.233,0.423,1.962,0.574
			c0.729,0.151,1.473,0.316,2.229,0.494c0.757,0.178,1.5,0.387,2.229,0.627c0.73,0.24,1.384,0.565,1.962,0.974
			c0.579,0.409,1.041,0.926,1.389,1.548c0.346,0.624,0.52,1.406,0.52,2.35c0,1.014-0.227,1.881-0.681,2.603
			c-0.454,0.721-1.037,1.308-1.749,1.762c-0.711,0.454-1.508,0.784-2.389,0.988c-0.88,0.204-1.757,0.307-2.629,0.307
			c-1.067,0-2.078-0.133-3.029-0.4c-0.953-0.267-1.789-0.671-2.509-1.214s-1.291-1.237-1.708-2.082
			c-0.418-0.845-0.627-1.846-0.627-3.003h2.402c0,0.801,0.156,1.491,0.467,2.069c0.312,0.579,0.721,1.055,1.228,1.428
			c0.507,0.374,1.099,0.65,1.775,0.828c0.676,0.178,1.371,0.267,2.083,0.267c0.569,0,1.143-0.053,1.722-0.16
			c0.578-0.107,1.098-0.289,1.561-0.547c0.463-0.258,0.836-0.609,1.122-1.055c0.285-0.445,0.427-1.015,0.427-1.708
			c0-0.659-0.173-1.192-0.52-1.602c-0.347-0.409-0.811-0.743-1.388-1.001c-0.579-0.257-1.232-0.467-1.962-0.627
			c-0.729-0.16-1.472-0.325-2.229-0.494c-0.756-0.169-1.499-0.364-2.229-0.587c-0.729-0.222-1.384-0.516-1.962-0.881
			c-0.578-0.364-1.041-0.836-1.388-1.415c-0.347-0.578-0.521-1.303-0.521-2.175c0-0.961,0.196-1.792,0.587-2.496
			c0.391-0.703,0.912-1.281,1.562-1.735s1.388-0.792,2.216-1.014c0.827-0.223,1.677-0.334,2.549-0.334
			c0.979,0,1.886,0.116,2.723,0.347c0.836,0.232,1.57,0.597,2.202,1.094c0.631,0.499,1.13,1.126,1.495,1.882
			c0.364,0.757,0.565,1.66,0.601,2.709h-2.402C115.828,181.354,115.334,180.362,114.489,179.748z"/>
		<path fill="#694F41" d="M124.779,177.146v8.195h10.037v-8.195h2.536v19.059h-2.536v-8.729h-10.037v8.729h-2.536v-19.059H124.779z"
			/>
		<path fill="#694F41" d="M141.021,182.925c0.382-1.201,0.956-2.264,1.722-3.189c0.765-0.926,1.717-1.665,2.856-2.216
			c1.139-0.551,2.465-0.827,3.978-0.827c1.512,0,2.838,0.276,3.978,0.827c1.139,0.552,2.091,1.291,2.856,2.216
			c0.765,0.925,1.339,1.989,1.722,3.189c0.382,1.201,0.574,2.452,0.574,3.75c0,1.299-0.192,2.549-0.574,3.75
			c-0.383,1.201-0.957,2.265-1.722,3.189c-0.765,0.926-1.717,1.66-2.856,2.203c-1.139,0.543-2.465,0.814-3.978,0.814
			c-1.513,0-2.839-0.271-3.978-0.814c-1.139-0.542-2.091-1.277-2.856-2.203c-0.766-0.925-1.339-1.988-1.722-3.189
			c-0.383-1.202-0.574-2.451-0.574-3.75C140.448,185.377,140.639,184.126,141.021,182.925z M143.357,189.518
			c0.25,0.935,0.641,1.775,1.174,2.523c0.534,0.747,1.219,1.348,2.056,1.802c0.836,0.454,1.833,0.68,2.99,0.68
			s2.153-0.227,2.99-0.68c0.836-0.454,1.521-1.055,2.056-1.802c0.534-0.748,0.925-1.588,1.174-2.523
			c0.249-0.934,0.374-1.882,0.374-2.843s-0.125-1.909-0.374-2.843c-0.25-0.935-0.641-1.775-1.174-2.522
			c-0.534-0.748-1.219-1.348-2.056-1.802c-0.836-0.454-1.833-0.68-2.99-0.68s-2.153,0.227-2.99,0.68
			c-0.836,0.454-1.521,1.055-2.056,1.802c-0.533,0.748-0.925,1.588-1.174,2.522c-0.25,0.934-0.374,1.882-0.374,2.843
			S143.107,188.584,143.357,189.518z"/>
		<path fill="#694F41" d="M170.157,177.146c1.922,0,3.376,0.494,4.364,1.481c0.988,0.988,1.481,2.372,1.481,4.151
			c0,1.78-0.494,3.168-1.481,4.165s-2.442,1.486-4.364,1.468h-5.819v7.794h-2.536v-19.059H170.157z M169.303,186.275
			c1.441,0.018,2.495-0.276,3.163-0.881c0.667-0.604,1.001-1.477,1.001-2.616c0-1.138-0.334-2.006-1.001-2.602
			c-0.668-0.597-1.722-0.895-3.163-0.895h-4.965v6.994H169.303z"/>
		<path fill="#694F41" d="M187.454,177.146c1.922,0,3.377,0.494,4.365,1.481c0.987,0.988,1.481,2.372,1.481,4.151
			c0,1.78-0.494,3.168-1.481,4.165c-0.988,0.997-2.443,1.486-4.365,1.468h-5.819v7.794H179.1v-19.059H187.454z M186.601,186.275
			c1.441,0.018,2.496-0.276,3.163-0.881c0.667-0.604,1.001-1.477,1.001-2.616c0-1.138-0.334-2.006-1.001-2.602
			c-0.667-0.597-1.722-0.895-3.163-0.895h-4.965v6.994H186.601z"/>
		<path fill="#694F41" d="M199.039,177.146v19.059h-2.536v-19.059H199.039z"/>
		<path fill="#694F41" d="M205.979,177.146l10.036,15.456h0.054v-15.456h2.402v19.059h-2.776l-9.957-15.295h-0.053v15.295h-2.402
			v-19.059H205.979z"/>
		<path fill="#694F41" d="M234.061,195.978c-1.104,0.436-2.216,0.654-3.337,0.654c-1.424,0-2.696-0.263-3.817-0.787
			c-1.121-0.525-2.073-1.232-2.856-2.122c-0.783-0.89-1.379-1.913-1.789-3.07c-0.41-1.156-0.614-2.358-0.614-3.604
			c0-1.388,0.191-2.709,0.575-3.964c0.382-1.255,0.952-2.353,1.708-3.297c0.756-0.943,1.699-1.695,2.83-2.255
			c1.129-0.561,2.451-0.841,3.964-0.841c1.032,0,2.006,0.12,2.923,0.36c0.917,0.241,1.735,0.619,2.455,1.135
			c0.721,0.516,1.326,1.17,1.815,1.962c0.49,0.792,0.823,1.749,1.001,2.869h-2.536c-0.125-0.729-0.356-1.356-0.694-1.881
			c-0.338-0.525-0.756-0.957-1.254-1.295c-0.499-0.337-1.064-0.592-1.696-0.761s-1.304-0.253-2.015-0.253
			c-1.157,0-2.149,0.231-2.976,0.694c-0.828,0.463-1.504,1.072-2.029,1.828c-0.525,0.757-0.913,1.62-1.161,2.589
			c-0.25,0.97-0.374,1.962-0.374,2.977c0,0.997,0.143,1.954,0.427,2.87s0.703,1.726,1.254,2.428
			c0.552,0.704,1.232,1.264,2.042,1.682c0.81,0.418,1.748,0.627,2.816,0.627c0.997,0,1.877-0.16,2.643-0.48
			c0.765-0.32,1.41-0.761,1.935-1.321c0.525-0.561,0.921-1.219,1.188-1.976s0.382-1.57,0.347-2.442h-6.086v-2.136h8.355v10.037
			h-1.602l-0.667-2.375C236.089,194.826,235.163,195.542,234.061,195.978z"/>
		<path fill="#694F41" d="M259.806,179.748c-0.846-0.614-1.927-0.92-3.243-0.92c-0.534,0-1.059,0.053-1.575,0.16
			c-0.517,0.107-0.975,0.285-1.375,0.534c-0.401,0.249-0.721,0.583-0.961,1.001c-0.24,0.418-0.36,0.939-0.36,1.562
			c0,0.587,0.173,1.063,0.521,1.428c0.347,0.365,0.81,0.664,1.388,0.895c0.578,0.231,1.232,0.423,1.962,0.574
			c0.73,0.151,1.473,0.316,2.229,0.494s1.499,0.387,2.229,0.627c0.73,0.24,1.384,0.565,1.962,0.974
			c0.578,0.409,1.042,0.926,1.389,1.548c0.347,0.624,0.52,1.406,0.52,2.35c0,1.014-0.226,1.881-0.68,2.603
			c-0.454,0.721-1.037,1.308-1.749,1.762c-0.711,0.454-1.508,0.784-2.389,0.988s-1.757,0.307-2.629,0.307
			c-1.068,0-2.078-0.133-3.03-0.4s-1.789-0.671-2.509-1.214s-1.291-1.237-1.708-2.082c-0.418-0.845-0.627-1.846-0.627-3.003h2.403
			c0,0.801,0.155,1.491,0.467,2.069c0.311,0.579,0.721,1.055,1.228,1.428c0.507,0.374,1.099,0.65,1.775,0.828
			c0.676,0.178,1.37,0.267,2.082,0.267c0.569,0,1.143-0.053,1.722-0.16c0.578-0.107,1.098-0.289,1.561-0.547
			s0.836-0.609,1.122-1.055c0.284-0.445,0.427-1.015,0.427-1.708c0-0.659-0.173-1.192-0.52-1.602
			c-0.347-0.409-0.81-0.743-1.388-1.001c-0.579-0.257-1.232-0.467-1.962-0.627c-0.729-0.16-1.472-0.325-2.229-0.494
			c-0.756-0.169-1.499-0.364-2.229-0.587c-0.729-0.222-1.384-0.516-1.962-0.881c-0.578-0.364-1.04-0.836-1.388-1.415
			c-0.347-0.578-0.521-1.303-0.521-2.175c0-0.961,0.196-1.792,0.587-2.496c0.391-0.703,0.912-1.281,1.562-1.735
			c0.649-0.454,1.388-0.792,2.216-1.014s1.677-0.334,2.549-0.334c0.978,0,1.885,0.116,2.722,0.347
			c0.836,0.232,1.57,0.597,2.202,1.094c0.631,0.499,1.13,1.126,1.495,1.882c0.365,0.757,0.565,1.66,0.601,2.709h-2.402
			C261.145,181.354,260.651,180.362,259.806,179.748z"/>
		<path fill="#694F41" d="M275.915,177.146c1.922,0,3.377,0.494,4.364,1.481c0.988,0.988,1.482,2.372,1.482,4.151
			c0,1.78-0.494,3.168-1.482,4.165c-0.987,0.997-2.442,1.486-4.364,1.468h-5.819v7.794h-2.536v-19.059H275.915z M275.061,186.275
			c1.441,0.018,2.496-0.276,3.163-0.881c0.667-0.604,1.001-1.477,1.001-2.616c0-1.138-0.334-2.006-1.001-2.602
			c-0.667-0.597-1.722-0.895-3.163-0.895h-4.965v6.994H275.061z"/>
		<path fill="#694F41" d="M293.827,177.146c1.815,0,3.234,0.445,4.257,1.335c1.023,0.89,1.535,2.109,1.535,3.657
			c0,1.157-0.263,2.172-0.788,3.043c-0.525,0.872-1.366,1.468-2.522,1.789v0.053c0.551,0.107,1.001,0.285,1.348,0.534
			c0.347,0.25,0.622,0.548,0.827,0.894c0.205,0.347,0.356,0.734,0.454,1.162c0.098,0.427,0.174,0.872,0.228,1.334
			c0.035,0.463,0.062,0.934,0.08,1.415c0.018,0.481,0.062,0.952,0.134,1.415c0.071,0.463,0.173,0.904,0.307,1.322
			c0.134,0.418,0.334,0.788,0.601,1.107h-2.829c-0.178-0.195-0.298-0.462-0.36-0.8c-0.063-0.338-0.103-0.716-0.12-1.134
			c-0.018-0.418-0.036-0.868-0.054-1.349c-0.018-0.48-0.071-0.952-0.16-1.415c-0.072-0.463-0.161-0.903-0.267-1.321
			c-0.107-0.417-0.276-0.783-0.507-1.095c-0.231-0.311-0.534-0.56-0.908-0.747c-0.373-0.187-0.872-0.28-1.495-0.28h-6.192v8.141
			h-2.536v-19.059H293.827z M294.36,185.794c0.534-0.089,1.001-0.262,1.401-0.521s0.721-0.605,0.961-1.041
			c0.24-0.436,0.36-1.001,0.36-1.695c0-0.961-0.267-1.744-0.801-2.35c-0.534-0.604-1.397-0.907-2.589-0.907h-6.299v6.646h5.285
			C293.266,185.928,293.827,185.884,294.36,185.794z"/>
		<path fill="#694F41" d="M316.302,177.146v2.136h-10.624v6.059h9.904v2.136h-9.904v6.593h10.705v2.135h-13.241v-19.059H316.302z"/>
		<path fill="#694F41" d="M332.612,177.146v2.136h-10.625v6.059h9.903v2.136h-9.903v6.593h10.705v2.135h-13.24v-19.059H332.612z"/>
	</g>
</g>
</svg>
