<?xml version="1.0" encoding="utf-8"?>
<!-- Generator: Adobe Illustrator 16.0.4, SVG Export Plug-In . SVG Version: 6.00 Build 0)  -->
<!DOCTYPE svg PUBLIC "-//W3C//DTD SVG 1.1//EN" "http://www.w3.org/Graphics/SVG/1.1/DTD/svg11.dtd">
<svg version="1.1" id="Layer_1" xmlns="http://www.w3.org/2000/svg" xmlns:xlink="http://www.w3.org/1999/xlink" x="0px" y="0px"
	 width="325.453px" height="200px" viewBox="0 0 325.453 200" enable-background="new 0 0 325.453 200" xml:space="preserve">
<path fill="#E4B622" d="M37.263,29.493c-0.479-0.767-1.074-1.44-1.791-2.021c-0.717-0.58-1.527-1.031-2.431-1.355
	c-0.904-0.324-1.85-0.486-2.84-0.486c-1.809,0-3.343,0.35-4.604,1.049c-1.263,0.699-2.285,1.637-3.069,2.814
	c-0.786,1.177-1.356,2.516-1.715,4.017c-0.357,1.502-0.537,3.053-0.537,4.656c0,1.535,0.18,3.027,0.537,4.478
	c0.358,1.45,0.929,2.755,1.715,3.914c0.784,1.161,1.807,2.09,3.069,2.789c1.262,0.7,2.796,1.049,4.604,1.049
	c2.457,0,4.375-0.75,5.757-2.251s2.226-3.48,2.532-5.936h7.778c-0.205,2.286-0.733,4.349-1.586,6.191
	c-0.854,1.842-1.979,3.412-3.377,4.708c-1.399,1.297-3.038,2.286-4.913,2.968c-1.876,0.682-3.939,1.023-6.191,1.023
	c-2.797,0-5.313-0.485-7.547-1.458c-2.234-0.973-4.119-2.311-5.654-4.018c-1.535-1.705-2.711-3.709-3.529-6.012
	c-0.819-2.302-1.229-4.784-1.229-7.444c0-2.729,0.409-5.262,1.229-7.599c0.818-2.336,1.994-4.375,3.529-6.114
	c1.535-1.74,3.42-3.104,5.654-4.094c2.233-0.989,4.75-1.484,7.547-1.484c2.012,0,3.915,0.291,5.706,0.87
	c1.79,0.58,3.395,1.425,4.81,2.532c1.415,1.109,2.584,2.481,3.505,4.119c0.921,1.638,1.5,3.514,1.739,5.629h-7.777
	C38.048,31.104,37.74,30.26,37.263,29.493z"/>
<path fill="#E4B622" d="M59.777,19.745v14.02h14.787v-14.02h8.033v36.534h-8.033v-15.76H59.777v15.76h-8.034V19.745H59.777z"/>
<path fill="#E4B622" d="M116.982,19.745V26.5h-19.29v7.828h17.704v6.242H97.692v8.955h19.699v6.754H89.658V19.745H116.982z"/>
<path fill="#E4B622" d="M146.25,29.493c-0.478-0.767-1.074-1.44-1.79-2.021c-0.717-0.58-1.527-1.031-2.431-1.355
	c-0.905-0.324-1.852-0.486-2.84-0.486c-1.81,0-3.344,0.35-4.605,1.049c-1.263,0.699-2.286,1.637-3.07,2.814
	c-0.785,1.177-1.356,2.516-1.715,4.017c-0.357,1.502-0.537,3.053-0.537,4.656c0,1.535,0.18,3.027,0.537,4.478
	c0.358,1.45,0.93,2.755,1.715,3.914c0.784,1.161,1.808,2.09,3.07,2.789c1.262,0.7,2.796,1.049,4.605,1.049
	c2.455,0,4.375-0.75,5.756-2.251c1.381-1.501,2.226-3.48,2.533-5.936h7.776c-0.203,2.286-0.733,4.349-1.586,6.191
	c-0.853,1.842-1.978,3.412-3.377,4.708c-1.399,1.297-3.036,2.286-4.912,2.968c-1.876,0.682-3.938,1.023-6.19,1.023
	c-2.798,0-5.313-0.485-7.548-1.458c-2.234-0.973-4.118-2.311-5.654-4.018c-1.535-1.705-2.712-3.709-3.53-6.012
	c-0.818-2.302-1.228-4.784-1.228-7.444c0-2.729,0.409-5.262,1.228-7.599c0.818-2.336,1.995-4.375,3.53-6.114
	c1.536-1.74,3.42-3.104,5.654-4.094c2.234-0.989,4.75-1.484,7.548-1.484c2.012,0,3.914,0.291,5.704,0.87
	c1.791,0.58,3.394,1.425,4.811,2.532c1.415,1.109,2.584,2.481,3.505,4.119c0.92,1.638,1.501,3.514,1.739,5.629h-7.777
	C147.033,31.104,146.728,30.26,146.25,29.493z"/>
<path fill="#E4B622" d="M168.764,19.745V34.89l14.274-15.145h10.029l-14.275,14.429l15.656,22.105h-10.078l-11.002-16.425
	l-4.604,4.656v11.769h-8.033V19.745H168.764z"/>
<path fill="#E4B622" d="M211.539,30.566c0.818-2.336,1.996-4.375,3.531-6.114c1.535-1.74,3.42-3.104,5.653-4.094
	c2.233-0.989,4.749-1.484,7.548-1.484c2.83,0,5.355,0.495,7.572,1.484c2.218,0.99,4.094,2.354,5.629,4.094
	c1.535,1.739,2.711,3.778,3.529,6.114c0.818,2.337,1.229,4.87,1.229,7.599c0,2.661-0.41,5.142-1.229,7.444
	c-0.818,2.303-1.994,4.307-3.529,6.012c-1.535,1.707-3.411,3.044-5.629,4.018c-2.217,0.972-4.742,1.458-7.572,1.458
	c-2.799,0-5.312-0.485-7.548-1.458c-2.233-0.973-4.118-2.311-5.653-4.018c-1.535-1.705-2.713-3.709-3.531-6.012
	c-0.818-2.302-1.229-4.784-1.229-7.444C210.311,35.436,210.72,32.904,211.539,30.566z M218.882,42.643
	c0.357,1.45,0.929,2.755,1.714,3.914c0.784,1.161,1.808,2.09,3.071,2.789c1.261,0.7,2.795,1.049,4.604,1.049s3.344-0.35,4.604-1.049
	c1.263-0.698,2.285-1.628,3.069-2.789c0.785-1.159,1.356-2.463,1.716-3.914c0.357-1.451,0.536-2.942,0.536-4.478
	c0-1.604-0.18-3.154-0.536-4.656c-0.357-1.501-0.931-2.84-1.716-4.017c-0.784-1.177-1.808-2.115-3.069-2.814
	c-1.262-0.7-2.797-1.049-4.604-1.049c-1.809,0-3.344,0.35-4.604,1.049c-1.265,0.699-2.287,1.637-3.071,2.814
	c-0.785,1.177-1.354,2.516-1.714,4.017c-0.358,1.502-0.537,3.053-0.537,4.656C218.345,39.701,218.523,41.193,218.882,42.643z"/>
<path fill="#E4B622" d="M278.569,53.49c-2.764,2.405-6.584,3.607-11.462,3.607c-4.945,0-8.775-1.194-11.486-3.582
	c-2.711-2.387-4.067-6.071-4.067-11.052V19.745h8.032v22.719c0,0.989,0.086,1.962,0.256,2.916c0.171,0.955,0.529,1.8,1.074,2.533
	c0.547,0.734,1.306,1.331,2.276,1.791c0.974,0.46,2.278,0.691,3.915,0.691c2.866,0,4.844-0.64,5.936-1.918
	c1.092-1.279,1.638-3.283,1.638-6.012v-22.72h8.034v22.719C282.714,47.41,281.332,51.085,278.569,53.49z"/>
<path fill="#E4B622" d="M286.755,26.5v-6.754h29.935V26.5h-10.95v29.779h-8.035V26.5H286.755z"/>
<path fill="#60504D" d="M10.399,72.12V67.7h29.59v4.42H27.656v35.028h-4.923V72.12H10.399z"/>
<path fill="#60504D" d="M49.005,67.7v16.961H68.49V67.7h4.922v39.448H68.49V89.081H49.005v18.065h-4.923V67.7H49.005z"/>
<path fill="#60504D" d="M86.626,67.7v39.448h-4.923V67.7H86.626z"/>
<path fill="#60504D" d="M113.443,73.086c-1.643-1.271-3.741-1.906-6.297-1.906c-1.036,0-2.056,0.11-3.058,0.332
	c-1.002,0.222-1.892,0.589-2.668,1.105c-0.777,0.516-1.399,1.208-1.866,2.071c-0.467,0.866-0.699,1.944-0.699,3.233
	c0,1.215,0.337,2.202,1.01,2.956c0.674,0.756,1.572,1.373,2.695,1.851c1.122,0.479,2.392,0.875,3.809,1.188s2.858,0.654,4.327,1.023
	c1.468,0.368,2.91,0.801,4.327,1.297c1.416,0.497,2.686,1.17,3.809,2.017c1.122,0.849,2.021,1.916,2.695,3.205
	c0.673,1.29,1.011,2.91,1.011,4.862c0,2.1-0.441,3.896-1.322,5.386c-0.881,1.493-2.013,2.709-3.394,3.646
	c-1.383,0.94-2.929,1.623-4.639,2.045c-1.711,0.424-3.411,0.636-5.104,0.636c-2.072,0-4.033-0.275-5.882-0.829
	c-1.848-0.551-3.472-1.391-4.87-2.514c-1.399-1.123-2.506-2.56-3.316-4.309c-0.813-1.749-1.219-3.822-1.219-6.216h4.664
	c0,1.656,0.303,3.085,0.907,4.281c0.604,1.197,1.398,2.183,2.384,2.957c0.985,0.773,2.132,1.346,3.445,1.713
	c1.312,0.369,2.661,0.553,4.043,0.553c1.105,0,2.22-0.109,3.342-0.332c1.122-0.221,2.133-0.598,3.031-1.132
	c0.897-0.533,1.624-1.261,2.177-2.182c0.552-0.921,0.829-2.1,0.829-3.536c0-1.362-0.337-2.467-1.011-3.315
	c-0.673-0.848-1.572-1.538-2.694-2.072c-1.124-0.534-2.393-0.967-3.809-1.298c-1.416-0.332-2.859-0.671-4.328-1.022
	c-1.468-0.35-2.91-0.755-4.326-1.215c-1.417-0.46-2.687-1.068-3.809-1.823c-1.123-0.755-2.021-1.731-2.695-2.929
	c-0.673-1.196-1.011-2.698-1.011-4.502c0-1.99,0.381-3.711,1.141-5.166c0.76-1.455,1.771-2.652,3.031-3.591
	c1.262-0.94,2.695-1.64,4.302-2.1c1.606-0.46,3.256-0.691,4.948-0.691c1.9,0,3.661,0.241,5.286,0.719
	c1.624,0.479,3.049,1.234,4.275,2.266c1.226,1.031,2.192,2.33,2.901,3.895c0.707,1.566,1.096,3.435,1.166,5.609h-4.663
	C116.042,76.411,115.083,74.357,113.443,73.086z"/>
<path fill="#60504D" d="M171.196,107.146l-8.446-33.148h-0.104l-8.551,33.148h-5.13L139.481,67.7h5.027l7.254,32.817h0.104
	l8.292-32.817h5.337l8.188,32.817h0.104L181.3,67.7h4.924l-9.898,39.448h-5.13V107.146z"/>
<path fill="#60504D" d="M216.436,67.7v4.42h-20.625v12.542h19.226v4.42h-19.226v13.646h20.778v4.42h-25.701V67.7H216.436z"/>
<path fill="#60504D" d="M248.098,67.7v4.42h-20.625v12.542h19.226v4.42h-19.226v13.646h20.78v4.42H222.55V67.7H248.098z"/>
<path fill="#60504D" d="M259.134,67.7v19.669L277.893,67.7h6.375l-15.599,15.911l16.22,23.538h-6.218L265.3,87.203l-6.165,6.133
	v13.812h-4.923V67.7H259.134z"/>
<path fill="#60504D" d="M307.3,73.086c-1.641-1.271-3.738-1.906-6.295-1.906c-1.037,0-2.057,0.11-3.057,0.332
	c-1.004,0.222-1.893,0.589-2.671,1.105c-0.776,0.516-1.399,1.208-1.864,2.071c-0.467,0.866-0.699,1.944-0.699,3.233
	c0,1.215,0.336,2.202,1.011,2.956c0.673,0.756,1.569,1.373,2.694,1.851c1.121,0.479,2.392,0.875,3.81,1.188
	c1.416,0.313,2.858,0.654,4.326,1.023c1.468,0.368,2.909,0.801,4.327,1.297c1.416,0.497,2.686,1.17,3.809,2.017
	c1.122,0.849,2.021,1.916,2.695,3.205c0.673,1.29,1.01,2.91,1.01,4.862c0,2.1-0.439,3.896-1.32,5.386
	c-0.882,1.493-2.014,2.709-3.395,3.646c-1.383,0.94-2.93,1.623-4.639,2.045c-1.711,0.424-3.412,0.636-5.104,0.636
	c-2.073,0-4.034-0.275-5.882-0.829c-1.851-0.551-3.474-1.391-4.872-2.514s-2.506-2.56-3.316-4.309
	c-0.812-1.749-1.218-3.822-1.218-6.216h4.664c0,1.656,0.302,3.085,0.907,4.281c0.604,1.197,1.398,2.183,2.384,2.957
	c0.983,0.773,2.133,1.346,3.444,1.713c1.312,0.369,2.66,0.553,4.043,0.553c1.104,0,2.22-0.109,3.344-0.332
	c1.122-0.221,2.132-0.598,3.029-1.132c0.898-0.533,1.625-1.261,2.179-2.182c0.552-0.921,0.828-2.1,0.828-3.536
	c0-1.362-0.337-2.467-1.011-3.315c-0.674-0.848-1.572-1.538-2.694-2.072c-1.123-0.534-2.394-0.967-3.81-1.298
	c-1.416-0.332-2.858-0.671-4.326-1.022c-1.469-0.35-2.911-0.755-4.327-1.215c-1.417-0.46-2.687-1.068-3.81-1.823
	c-1.123-0.755-2.021-1.731-2.693-2.929c-0.674-1.196-1.012-2.698-1.012-4.502c0-1.99,0.381-3.711,1.142-5.166
	c0.759-1.455,1.771-2.652,3.03-3.591c1.261-0.94,2.695-1.64,4.302-2.1s3.256-0.691,4.948-0.691c1.899,0,3.662,0.241,5.285,0.719
	c1.623,0.479,3.049,1.234,4.274,2.266c1.228,1.031,2.194,2.33,2.903,3.895c0.707,1.566,1.096,3.435,1.166,5.609h-4.666
	C309.9,76.411,308.941,74.357,307.3,73.086z"/>
<path fill="#60504D" d="M9.479,117.092h46.374v1.738h-22.36v60.382h-1.74V118.83H9.479V117.092z"/>
<path fill="#60504D" d="M59.072,179.212v-62.12h25.404c6.496,0,11.253,1.289,14.269,3.871c3.016,2.581,4.582,6.6,4.699,12.051
	c0.115,4.176-0.986,7.643-3.307,10.396c-2.32,2.756-5.655,4.626-10.005,5.611v0.174c2.61,0.348,4.727,0.972,6.351,1.871
	c1.623,0.898,2.871,2.074,3.742,3.522c0.869,1.451,1.449,3.161,1.74,5.134c0.288,1.973,0.434,4.207,0.434,6.699
	c0,0.87,0.029,1.957,0.088,3.262c0.058,1.307,0.144,2.599,0.261,3.871c0.116,1.279,0.262,2.438,0.435,3.481
	c0.175,1.044,0.406,1.771,0.697,2.175h-1.914c-0.291-0.638-0.522-1.492-0.697-2.566c-0.174-1.07-0.304-2.217-0.391-3.437
	c-0.087-1.219-0.146-2.45-0.174-3.696c-0.031-1.248-0.044-2.363-0.044-3.352c0-2.551-0.188-4.828-0.564-6.829
	c-0.38-2.001-1.146-3.683-2.307-5.047c-1.161-1.362-2.814-2.406-4.96-3.132c-2.146-0.727-5.017-1.088-8.612-1.088H60.812v29.146
	L59.072,179.212L59.072,179.212z M84.043,148.325c2.318,0,4.537-0.289,6.654-0.87c2.117-0.579,3.988-1.508,5.612-2.783
	c1.623-1.275,2.928-2.885,3.916-4.829c0.985-1.942,1.479-4.276,1.479-7.005c-0.059-4.406-1.392-7.844-4.002-10.311
	c-2.609-2.465-6.874-3.697-12.79-3.697h-24.1v29.495H84.043z"/>
<path fill="#60504D" d="M153.82,177.473v1.739h-41.589v-62.12h41.239v1.738h-39.499v27.146h37.152v1.74h-37.152v29.756H153.82
	L153.82,177.473z"/>
<path fill="#60504D" d="M161.562,117.092l42.458,59.945h0.174v-59.945h1.74v62.12h-2.608l-42.46-59.944h-0.174v59.944h-1.74v-62.12
	H161.562z"/>
<path fill="#60504D" d="M237.082,117.092c3.073,0,6.191,0.477,9.354,1.434c3.16,0.957,6.002,2.61,8.525,4.961
	c2.522,2.349,4.58,5.524,6.178,9.527c1.594,4.002,2.393,9.049,2.393,15.139c0,5.568-0.812,10.324-2.436,14.271
	c-1.625,3.942-3.801,7.147-6.525,9.613c-2.727,2.466-5.83,4.276-9.311,5.438c-3.479,1.16-7.105,1.738-10.875,1.738H215.33v-62.12
	L237.082,117.092L237.082,117.092z M234.819,177.473c3.654,0,7.119-0.594,10.397-1.783c3.275-1.188,6.146-2.986,8.613-5.396
	c2.465-2.405,4.406-5.45,5.828-9.135s2.133-8.019,2.133-13.009c0-5.799-0.728-10.584-2.176-14.354
	c-1.449-3.769-3.363-6.771-5.742-9.006c-2.379-2.231-5.062-3.784-8.049-4.655c-2.986-0.867-6.046-1.305-9.178-1.305H217.07v58.643
	H234.819L234.819,177.473z"/>
<path fill="#60504D" d="M311.427,126.443c-1.073-2.176-2.494-3.943-4.264-5.309c-1.771-1.361-3.871-2.334-6.309-2.914
	c-2.436-0.578-5.045-0.869-7.829-0.869c-2.147,0-4.382,0.217-6.7,0.652c-2.32,0.436-4.424,1.204-6.308,2.307
	c-1.886,1.103-3.437,2.565-4.655,4.395c-1.217,1.824-1.826,4.132-1.826,6.915c0,2.784,0.623,5.019,1.87,6.698
	c1.247,1.685,2.87,3.048,4.872,4.091c2.001,1.044,4.277,1.856,6.831,2.437c2.552,0.581,5.16,1.19,7.829,1.826
	c2.898,0.756,5.641,1.479,8.223,2.176c2.58,0.695,4.828,1.625,6.742,2.784c1.915,1.161,3.438,2.696,4.566,4.61
	c1.133,1.914,1.697,4.496,1.697,7.742c0,2.961-0.64,5.482-1.914,7.57c-1.275,2.09-2.957,3.815-5.045,5.178
	c-2.09,1.363-4.438,2.351-7.049,2.957c-2.609,0.608-5.25,0.914-7.918,0.914c-3.537,0-6.802-0.405-9.787-1.217
	c-2.988-0.812-5.568-2.102-7.742-3.873c-2.176-1.769-3.859-4.046-5.047-6.83c-1.19-2.785-1.756-6.146-1.697-10.092h1.74
	c0,3.711,0.551,6.86,1.653,9.439c1.101,2.58,2.651,4.684,4.654,6.309c2.001,1.623,4.378,2.799,7.133,3.523
	c2.755,0.727,5.787,1.087,9.093,1.087c2.438,0,4.857-0.273,7.266-0.826c2.406-0.551,4.567-1.437,6.481-2.653
	c1.914-1.219,3.466-2.783,4.654-4.697s1.784-4.205,1.784-6.875c0-3.133-0.684-5.61-2.045-7.438
	c-1.362-1.828-3.104-3.277-5.222-4.352c-2.116-1.072-4.467-1.883-7.046-2.436c-2.583-0.552-5.062-1.117-7.439-1.697
	c-2.494-0.578-4.988-1.188-7.481-1.826c-2.494-0.637-4.741-1.522-6.742-2.654c-2.003-1.13-3.61-2.639-4.829-4.523
	c-1.218-1.884-1.826-4.336-1.826-7.353c0-3.073,0.638-5.64,1.914-7.7c1.273-2.059,2.928-3.695,4.959-4.914
	c2.028-1.22,4.307-2.09,6.83-2.609c2.521-0.523,5.029-0.785,7.525-0.785c3.072,0,5.9,0.336,8.482,1
	c2.58,0.67,4.842,1.742,6.785,3.22c1.943,1.479,3.494,3.426,4.654,5.832c1.161,2.405,1.828,5.349,2.002,8.83h-1.74
	C313.093,131.303,312.5,128.619,311.427,126.443z"/>
</svg>
