<?xml version="1.0" encoding="utf-8"?>
<!-- Generator: Adobe Illustrator 16.0.4, SVG Export Plug-In . SVG Version: 6.00 Build 0)  -->
<!DOCTYPE svg PUBLIC "-//W3C//DTD SVG 1.1//EN" "http://www.w3.org/Graphics/SVG/1.1/DTD/svg11.dtd">
<svg version="1.1" id="Logo" xmlns="http://www.w3.org/2000/svg" xmlns:xlink="http://www.w3.org/1999/xlink" x="0px" y="0px"
	 width="527px" height="310px" viewBox="1054.049 72.5 527 310" enable-background="new 1054.049 72.5 527 310"
	 xml:space="preserve">
<rect x="1056.549" y="75" fill="#FFFFFF" stroke="#FDF5C2" stroke-width="5" stroke-miterlimit="10" width="522" height="305"/>
<g>
	<path fill="#E3B523" d="M1110.463,151.138c-0.518-0.83-1.162-1.558-1.938-2.186c-0.773-0.626-1.65-1.115-2.627-1.466
		c-0.979-0.35-2.002-0.525-3.072-0.525c-1.955,0-3.615,0.379-4.979,1.134c-1.364,0.757-2.471,1.771-3.319,3.043
		s-1.465,2.721-1.854,4.344c-0.387,1.623-0.58,3.301-0.58,5.034c0,1.66,0.193,3.274,0.58,4.842c0.39,1.567,1.006,2.979,1.854,4.232
		c0.85,1.254,1.955,2.26,3.319,3.015c1.363,0.757,3.023,1.135,4.979,1.135c2.656,0,4.729-0.812,6.225-2.435
		c1.495-1.623,2.408-3.763,2.74-6.418h8.408c-0.221,2.472-0.793,4.703-1.715,6.694c-0.922,1.992-2.14,3.688-3.65,5.09
		c-1.514,1.402-3.285,2.472-5.312,3.209c-2.028,0.737-4.26,1.106-6.694,1.106c-3.023,0-5.744-0.525-8.16-1.576
		c-2.416-1.052-4.453-2.499-6.113-4.344c-1.66-1.844-2.932-4.011-3.817-6.501c-0.886-2.489-1.326-5.173-1.326-8.05
		c0-2.95,0.44-5.688,1.326-8.216c0.887-2.526,2.157-4.73,3.817-6.611c1.66-1.882,3.697-3.356,6.113-4.427
		c2.416-1.069,5.137-1.604,8.16-1.604c2.178,0,4.233,0.314,6.17,0.941c1.937,0.627,3.67,1.54,5.201,2.738
		c1.529,1.199,2.793,2.684,3.789,4.454s1.623,3.799,1.881,6.086h-8.408C1111.311,152.881,1110.979,151.968,1110.463,151.138z"/>
	<path fill="#E3B523" d="M1134.807,140.599v15.159h15.988v-15.159h8.688v39.503h-8.688v-17.041h-15.988v17.041h-8.688v-39.503
		H1134.807z"/>
	<path fill="#E3B523" d="M1196.662,140.599v7.303h-20.859v8.465h19.144v6.75h-19.144v9.683h21.301v7.303h-29.985V140.6
		L1196.662,140.599L1196.662,140.599z"/>
	<path fill="#E3B523" d="M1228.309,151.138c-0.518-0.83-1.162-1.558-1.938-2.186c-0.773-0.626-1.65-1.115-2.627-1.466
		c-0.979-0.35-2.002-0.525-3.072-0.525c-1.955,0-3.615,0.379-4.979,1.134c-1.365,0.757-2.472,1.771-3.32,3.043
		c-0.848,1.272-1.465,2.721-1.854,4.344c-0.388,1.623-0.58,3.301-0.58,5.034c0,1.66,0.192,3.274,0.58,4.842
		c0.389,1.567,1.006,2.979,1.854,4.232c0.85,1.254,1.955,2.26,3.32,3.015c1.362,0.757,3.022,1.135,4.979,1.135
		c2.656,0,4.73-0.812,6.225-2.435c1.495-1.623,2.408-3.763,2.74-6.418h8.408c-0.221,2.472-0.793,4.703-1.715,6.694
		c-0.922,1.992-2.139,3.688-3.65,5.09c-1.514,1.402-3.285,2.472-5.312,3.209c-2.029,0.737-4.261,1.106-6.695,1.106
		c-3.022,0-5.744-0.525-8.16-1.576c-2.416-1.052-4.453-2.499-6.112-4.344c-1.66-1.844-2.933-4.011-3.818-6.501
		c-0.885-2.489-1.326-5.173-1.326-8.05c0-2.95,0.441-5.688,1.326-8.216c0.887-2.526,2.158-4.73,3.818-6.611
		c1.659-1.882,3.696-3.356,6.112-4.427c2.416-1.069,5.138-1.604,8.16-1.604c2.178,0,4.234,0.314,6.17,0.941
		c1.937,0.627,3.67,1.54,5.201,2.738c1.529,1.199,2.793,2.684,3.789,4.454s1.623,3.799,1.881,6.086h-8.408
		C1229.156,152.881,1228.824,151.968,1228.309,151.138z"/>
	<path fill="#E3B523" d="M1252.652,140.599v16.376l15.436-16.376h10.844l-15.436,15.602l16.93,23.901h-10.899l-11.896-17.76
		l-4.979,5.034v12.726h-8.688v-39.503H1252.652z"/>
	<path fill="#E3B523" d="M1298.904,152.3c0.885-2.526,2.158-4.73,3.817-6.611c1.658-1.882,3.697-3.356,6.113-4.427
		c2.414-1.069,5.135-1.604,8.16-1.604c3.062,0,5.791,0.535,8.188,1.604c2.397,1.07,4.428,2.545,6.086,4.427
		c1.66,1.881,2.934,4.085,3.817,6.611c0.886,2.527,1.328,5.266,1.328,8.216c0,2.877-0.442,5.561-1.328,8.05
		c-0.885,2.49-2.157,4.657-3.817,6.501c-1.658,1.845-3.688,3.292-6.086,4.344c-2.396,1.051-5.127,1.576-8.188,1.576
		c-3.025,0-5.746-0.525-8.16-1.576c-2.416-1.052-4.455-2.499-6.113-4.344c-1.659-1.844-2.934-4.011-3.817-6.501
		c-0.885-2.489-1.328-5.173-1.328-8.05C1297.576,157.565,1298.02,154.827,1298.904,152.3z M1306.844,165.357
		c0.387,1.567,1.004,2.979,1.854,4.232c0.848,1.254,1.955,2.26,3.319,3.015c1.363,0.757,3.023,1.135,4.979,1.135
		s3.615-0.378,4.979-1.135c1.365-0.755,2.472-1.761,3.32-3.015c0.848-1.254,1.467-2.665,1.854-4.232
		c0.387-1.567,0.579-3.182,0.579-4.842c0-1.733-0.192-3.411-0.579-5.034c-0.388-1.623-1.007-3.071-1.854-4.344
		c-0.85-1.272-1.955-2.286-3.32-3.043c-1.362-0.755-3.022-1.134-4.979-1.134s-3.615,0.379-4.979,1.134
		c-1.364,0.757-2.473,1.771-3.319,3.043c-0.851,1.272-1.468,2.721-1.854,4.344s-0.582,3.301-0.582,5.034
		C1306.262,162.176,1306.457,163.79,1306.844,165.357z"/>
	<path fill="#E3B523" d="M1371.383,177.086c-2.988,2.601-7.119,3.9-12.395,3.9c-5.349,0-9.488-1.29-12.42-3.872
		c-2.935-2.582-4.398-6.565-4.398-11.951v-24.564h8.687v24.564c0,1.07,0.092,2.122,0.276,3.154c0.185,1.032,0.57,1.945,1.162,2.738
		c0.59,0.794,1.41,1.438,2.461,1.937s2.463,0.747,4.232,0.747c3.1,0,5.238-0.691,6.418-2.075c1.182-1.383,1.771-3.55,1.771-6.501
		v-24.564h8.687v24.564C1375.863,170.512,1374.371,174.486,1371.383,177.086z"/>
	<path fill="#E3B523" d="M1380.234,147.901v-7.303h32.366v7.303h-11.84v32.2h-8.688v-32.2H1380.234z"/>
	<path fill="#E3B523" d="M1429.42,147.901v-7.303h32.367v7.303h-11.84v32.2h-8.688v-32.2H1429.42z"/>
	<path fill="#E3B523" d="M1475.01,140.599v15.159h15.988v-15.159h8.688v39.503h-8.688v-17.041h-15.988v17.041h-8.688v-39.503
		H1475.01z"/>
	<path fill="#E3B523" d="M1516.006,140.599v39.503h-8.686v-39.503H1516.006z"/>
	<path fill="#E3B523" d="M1530.279,170.364c0.479,0.922,1.115,1.669,1.91,2.24c0.793,0.572,1.723,0.996,2.793,1.272
		c1.069,0.277,2.176,0.415,3.319,0.415c0.775,0,1.604-0.063,2.49-0.193c0.885-0.129,1.715-0.378,2.488-0.747
		c0.774-0.368,1.42-0.876,1.938-1.521c0.517-0.645,0.773-1.466,0.773-2.462c0-1.069-0.34-1.937-1.023-2.601
		c-0.682-0.664-1.576-1.217-2.682-1.659c-1.107-0.443-2.361-0.83-3.765-1.162c-1.402-0.332-2.819-0.7-4.26-1.106
		c-1.475-0.368-2.914-0.82-4.313-1.355c-1.402-0.534-2.656-1.227-3.765-2.075c-1.104-0.848-2-1.908-2.684-3.182
		c-0.682-1.272-1.023-2.812-1.023-4.619c0-2.028,0.435-3.79,1.302-5.284c0.866-1.493,2-2.738,3.401-3.734
		c1.402-0.996,2.988-1.733,4.759-2.213c1.771-0.479,3.541-0.72,5.312-0.72c2.064,0,4.047,0.231,5.947,0.692
		c1.897,0.461,3.586,1.208,5.062,2.24c1.476,1.033,2.646,2.352,3.515,3.956c0.865,1.604,1.299,3.551,1.299,5.837h-8.408
		c-0.074-1.18-0.324-2.158-0.748-2.933c-0.424-0.775-0.986-1.383-1.688-1.825c-0.701-0.443-1.502-0.756-2.406-0.94
		s-1.891-0.277-2.961-0.277c-0.701,0-1.4,0.074-2.103,0.222s-1.338,0.406-1.907,0.774c-0.572,0.369-1.043,0.83-1.412,1.383
		c-0.369,0.554-0.554,1.255-0.554,2.103c0,0.774,0.146,1.402,0.443,1.882c0.295,0.479,0.875,0.922,1.742,1.327
		c0.866,0.406,2.063,0.812,3.596,1.218c1.532,0.406,3.531,0.922,6.004,1.549c0.736,0.147,1.76,0.415,3.07,0.802
		c1.309,0.388,2.608,1.006,3.899,1.854c1.291,0.85,2.406,1.983,3.349,3.403c0.938,1.42,1.41,3.236,1.41,5.449
		c0,1.808-0.351,3.485-1.052,5.035c-0.701,1.549-1.741,2.887-3.125,4.011c-1.385,1.126-3.1,2.002-5.146,2.628
		c-2.047,0.627-4.418,0.94-7.109,0.94c-2.178,0-4.287-0.268-6.334-0.802c-2.049-0.534-3.854-1.374-5.424-2.518
		c-1.565-1.143-2.812-2.601-3.733-4.371c-0.923-1.77-1.365-3.872-1.328-6.307h8.41
		C1529.561,168.317,1529.801,169.442,1530.279,170.364z"/>
	<g>
		<path fill="#60504D" d="M1145.721,197.292l-15.115,52.135h-1.971l-15.334-50.31h-0.146l-15.041,50.31h-1.974l-15.334-52.135h1.461
			l14.75,50.31h0.146l15.041-50.31h2.117l15.262,50.31h0.146l14.528-50.31H1145.721L1145.721,197.292z"/>
		<path fill="#60504D" d="M1183.836,247.966v1.461h-34.902v-52.135h34.609v1.461h-33.147v22.781h31.178v1.459h-31.178v24.973
			H1183.836z"/>
		<path fill="#60504D" d="M1223.047,247.966v1.461h-34.904v-52.135h34.611v1.461h-33.15v22.781h31.179v1.459h-31.179v24.973
			H1223.047z"/>
		<path fill="#60504D" d="M1228.814,249.427h-1.462v-52.135h1.462v31.69l36.143-31.69h2.191l-25.191,22.198l26.652,29.937h-1.974
			l-25.848-29.062l-11.976,10.587v18.475H1228.814z"/>
		<path fill="#60504D" d="M1273.572,205.908c0,1.314-0.049,2.386-0.146,3.213c-0.097,0.827-0.279,1.532-0.547,2.117
			c-0.268,0.584-0.609,1.059-1.021,1.423c-0.414,0.366-0.938,0.72-1.57,1.06v-1.46c0.729-0.486,1.217-1.205,1.461-2.155
			c0.242-0.948,0.365-2.347,0.365-4.197v-8.616h1.459L1273.572,205.908L1273.572,205.908z"/>
		<path fill="#60504D" d="M1316.18,205.142c-0.901-1.825-2.094-3.311-3.578-4.454c-1.485-1.144-3.25-1.96-5.295-2.446
			c-2.043-0.486-4.233-0.731-6.569-0.731c-1.804,0-3.679,0.184-5.623,0.548c-1.947,0.366-3.713,1.012-5.295,1.936
			c-1.582,0.926-2.884,2.154-3.906,3.688c-1.021,1.534-1.533,3.469-1.533,5.806c0,2.336,0.523,4.21,1.57,5.621
			c1.047,1.413,2.41,2.557,4.09,3.433c1.678,0.876,3.588,1.559,5.729,2.044c2.144,0.487,4.332,0.999,6.572,1.534
			c2.434,0.633,4.734,1.241,6.9,1.825c2.166,0.586,4.053,1.363,5.658,2.336c1.606,0.975,2.885,2.266,3.834,3.871
			c0.948,1.607,1.424,3.773,1.424,6.498c0,2.484-0.535,4.603-1.605,6.354c-1.072,1.752-2.482,3.201-4.236,4.345
			c-1.752,1.145-3.725,1.973-5.913,2.483c-2.189,0.51-4.406,0.767-6.646,0.767c-2.971,0-5.709-0.343-8.215-1.023
			c-2.508-0.68-4.674-1.762-6.498-3.248c-1.826-1.484-3.238-3.395-4.236-5.732c-0.998-2.336-1.473-5.158-1.422-8.469h1.459
			c0,3.115,0.463,5.756,1.39,7.922c0.924,2.166,2.227,3.932,3.905,5.293c1.679,1.363,3.674,2.35,5.986,2.957
			c2.312,0.611,4.855,0.914,7.631,0.914c2.045,0,4.076-0.23,6.098-0.693c2.021-0.463,3.832-1.205,5.439-2.229
			c1.605-1.021,2.908-2.336,3.906-3.943c0.996-1.604,1.498-3.529,1.498-5.768c0-2.629-0.574-4.709-1.717-6.242
			c-1.146-1.535-2.605-2.752-4.382-3.652c-1.776-0.898-3.75-1.58-5.916-2.043s-4.245-0.938-6.241-1.426
			c-2.095-0.485-4.188-0.997-6.279-1.533c-2.094-0.535-3.98-1.277-5.66-2.228c-1.678-0.948-3.029-2.214-4.051-3.797
			c-1.023-1.581-1.535-3.638-1.535-6.169c0-2.581,0.535-4.734,1.607-6.463c1.069-1.727,2.457-3.104,4.161-4.125
			c1.703-1.022,3.613-1.753,5.732-2.191c2.117-0.438,4.223-0.657,6.316-0.657c2.577,0,4.95,0.281,7.118,0.84
			c2.166,0.562,4.064,1.461,5.695,2.702c1.629,1.241,2.932,2.872,3.906,4.893c0.973,2.021,1.533,4.49,1.68,7.41h-1.461
			C1317.578,209.219,1317.078,206.966,1316.18,205.142z"/>
		<path fill="#60504D" d="M1342.646,197.292h38.92v1.461H1362.8v50.674h-1.461v-50.674h-18.692V197.292z"/>
		<path fill="#60504D" d="M1384.27,249.427v-52.135h21.32c5.451,0,9.443,1.083,11.975,3.249c2.531,2.167,3.847,5.538,3.943,10.112
			c0.098,3.506-0.828,6.415-2.772,8.727c-1.947,2.312-4.746,3.883-8.398,4.709v0.146c2.191,0.293,3.967,0.814,5.33,1.568
			c1.363,0.756,2.41,1.742,3.141,2.959c0.731,1.217,1.218,2.654,1.462,4.306c0.241,1.656,0.364,3.531,0.364,5.623
			c0,0.73,0.023,1.644,0.072,2.738c0.049,1.096,0.121,2.18,0.219,3.248c0.099,1.074,0.22,2.047,0.365,2.922s0.34,1.486,0.584,1.826
			h-1.604c-0.244-0.535-0.439-1.254-0.584-2.154c-0.146-0.899-0.257-1.86-0.33-2.885c-0.072-1.021-0.121-2.055-0.146-3.104
			c-0.022-1.045-0.035-1.982-0.035-2.811c0-2.144-0.158-4.054-0.475-5.732c-0.318-1.68-0.961-3.09-1.937-4.234
			c-0.975-1.144-2.36-2.02-4.161-2.629c-1.802-0.607-4.212-0.912-7.229-0.912h-19.643v24.461L1384.27,249.427L1384.27,249.427z
			 M1405.225,223.505c1.947,0,3.81-0.242,5.586-0.73c1.777-0.486,3.347-1.266,4.712-2.337c1.36-1.069,2.457-2.421,3.284-4.052
			c0.828-1.631,1.24-3.59,1.24-5.879c-0.049-3.699-1.168-6.583-3.356-8.653c-2.191-2.067-5.771-3.102-10.734-3.102h-20.228v24.752
			L1405.225,223.505L1405.225,223.505z"/>
		<path fill="#60504D" d="M1463.785,247.966v1.461h-34.902v-52.135h34.609v1.461h-33.148v22.781h31.179v1.459h-31.179v24.973
			H1463.785z"/>
		<path fill="#60504D" d="M1470.283,197.292l35.633,50.31h0.146v-50.31h1.461v52.136h-2.191l-35.633-50.311h-0.146v50.311h-1.459
			v-52.136H1470.283L1470.283,197.292z"/>
		<path fill="#60504D" d="M1533.662,197.292c2.58,0,5.197,0.401,7.85,1.204c2.652,0.804,5.039,2.191,7.156,4.163
			c2.117,1.971,3.846,4.636,5.186,7.994c1.339,3.359,2.009,7.594,2.009,12.706c0,4.674-0.685,8.666-2.045,11.977
			c-1.363,3.311-3.189,5.998-5.478,8.068c-2.289,2.068-4.893,3.59-7.812,4.562c-2.923,0.976-5.966,1.461-9.13,1.461h-15.989v-52.135
			H1533.662L1533.662,197.292z M1531.764,247.966c3.068,0,5.978-0.498,8.728-1.498c2.75-0.995,5.16-2.504,7.229-4.524
			s3.699-4.576,4.894-7.668c1.19-3.09,1.789-6.729,1.789-10.917c0-4.867-0.609-8.882-1.826-12.048
			c-1.217-3.164-2.824-5.682-4.818-7.558c-1.996-1.872-4.248-3.176-6.754-3.906c-2.508-0.729-5.074-1.094-7.703-1.094h-16.43v49.213
			H1531.764z"/>
	</g>
</g>
<text transform="matrix(1 0 0 1 1223.5352 315.5957)" fill="#60504D" font-family="'HelveticaNeue-CondensedBold'" font-size="40" text-decoration=" underline">READ MORE</text>
</svg>
